<?xml version="1.0" standalone="no"?>
<!DOCTYPE svg PUBLIC "-//W3C//DTD SVG 1.1//EN" "http://www.w3.org/Graphics/SVG/1.1/DTD/svg11.dtd" >
<svg>
<metadata>
Created by FontForge 20110222 at Wed Jan 23 14:02:25 2013
 By www-data
Copyright [c] 2013 by SpideRaY @ www.windowstipsclub.com. All rights reserved.
</metadata>
<defs>
<font id="LOL!" horiz-adv-x="833" >
  <font-face 
    font-family="LOL!"
    font-weight="400"
    font-stretch="normal"
    units-per-em="1000"
    panose-1="2 0 5 3 0 0 0 0 0 0"
    ascent="800"
    descent="-200"
    x-height="501"
    cap-height="1000"
    bbox="25 -335 1606 1285"
    underline-thickness="50"
    underline-position="-100"
    unicode-range="U+0020-2122"
  />
    <missing-glyph />
    <glyph glyph-name="grave" unicode="`" 
 />
    <glyph glyph-name="backslash" unicode="\" horiz-adv-x="372" 
d="M347 20c-1 -14 -6 -35 -23 -35c-56 0 -78 7 -97 45c-200 909 -200 910 -202 940c0 14 4 22 10 22h97l26 -27c0 -1 1 -7 3 -18c18 -69 117 -552 186 -927z" />
    <glyph glyph-name="registered" unicode="&#xae;" horiz-adv-x="1172" 
d="M356 176c-19 10 -106 98 -193 197c-100 133 -133 198 -133 309c0 37 2 52 8 78l1 3c19 74 54 123 128 179c106 53 121 54 229 54c85 0 186 -40 294 -116c38 38 99 62 191 65c146 0 261 -100 261 -236v-64c0 -46 -35 -136 -51 -152c0 -1 0 -2 -1 -2
c-36 -67 -110 -164 -147 -197l-5 -5c-15 -13 -50 -48 -62 -63l-28 -28l-94 -80l-114 -85c-15 -10 -24 -16 -38 -26h-14l-135 93zM587 33l10 -4l143 104l86 72c62 62 125 128 144 150l43 55l40 59c63 108 66 124 69 209c0 158 -94 247 -263 247c-37 0 -100 -13 -165 -70h-8
c-2 0 -3 2 -6 4c-52 52 -206 117 -288 117h-47c-159 0 -295 -129 -295 -294c0 -192 183 -413 537 -649zM544 410l-1 -195l-71 1l-4 4v88l7 295l-1 93l-5 5c-35 8 -35 9 -35 69c3 16 10 19 53 23c192 0 228 -21 235 -165c0 -64 -19 -114 -62 -157l-1 -15l98 -209
c0 -7 -2 -12 -5 -14l-58 -29c-8 0 -10 2 -16 16l-83 207l-9 9c-1 1 -3 2 -5 2c-20 0 -36 -10 -37 -28zM552 540v-22c54 0 94 46 94 100c0 50 -33 94 -70 94c-21 0 -22 -5 -23 -20zM803 868l2 9l10 10l39 9l55 2l36 -6c8 0 17 -4 21 -8l2 -7c3 0 5 -1 5 -4l-8 -7l-89 -4
l-52 -9c-17 2 -21 6 -21 15zM505 863l-19 6l-65 17l-58 8c-40 0 -51 0 -76 -5l-46 -11l-16 -5h-5c-3 -6 -30 -2 -36 6l-5 8l5 19l15 14c10 8 42 21 51 21l16 3c11 4 30 6 49 6l7 2l63 -1l55 -4l70 -18c0 -1 0 -1 1 -1c6 0 27 -13 50 -32l6 -6c5 -8 5 -9 5 -10
c0 -14 -4 -18 -17 -18l-12 -2z" />
    <glyph glyph-name="g" unicode="g" horiz-adv-x="447" 
d="M33 -135c0 41 0 46 56 102l1 9c0 14 -7 22 -33 36c-25 17 -32 26 -32 42c0 32 28 56 112 95c0 24 -4 31 -43 59c-31 24 -53 76 -53 128c0 71 61 153 121 159c10 2 13 3 22 9c58 128 72 134 158 134c10 -3 14 -12 16 -41c0 -31 0 -31 -38 -43c-29 -8 -47 -25 -57 -50
c-1 0 -1 -1 -1 -4c0 -5 12 -15 62 -52c34 -24 49 -74 49 -129c0 -104 -55 -156 -221 -233c0 -35 7 -38 69 -46c149 -20 201 -58 201 -165c0 -103 -73 -160 -203 -160c-109 0 -186 61 -186 150zM128 -131c0 -49 42 -84 100 -84c60 0 99 35 99 88c0 54 -30 80 -95 80
c-67 0 -104 -30 -104 -84zM128 325c0 -53 27 -83 79 -83c58 0 88 27 88 78c0 49 -38 82 -96 82c-45 0 -71 -28 -71 -77z" />
    <glyph glyph-name="h" unicode="h" horiz-adv-x="381" 
d="M26 667c2 153 3 174 67 174c14 0 18 -2 19 -7l-2 -384c0 -6 5 -8 25 -8c58 51 83 67 115 67c71 0 106 -66 106 -199c0 -91 -18 -222 -38 -281c-1 -6 -8 -8 -26 -8c-20 0 -33 10 -40 29c17 66 20 110 23 247c0 65 -20 102 -54 102c-53 0 -97 -53 -100 -118l-17 -266
c0 -7 -16 -15 -29 -15c-4 1 -10 2 -23 7c-16 9 -22 182 -26 660z" />
    <glyph glyph-name="i" unicode="i" horiz-adv-x="163" 
d="M47 484l13 13h65c7 0 8 -3 13 -27c-5 -248 -8 -405 -8 -448c-7 -19 -13 -19 -59 -22c-24 0 -24 1 -24 484zM25 693c0 44 20 71 54 71s48 -23 52 -71c0 -44 -23 -74 -56 -74c-27 0 -44 26 -50 74z" />
    <glyph glyph-name="l" unicode="l" horiz-adv-x="152" 
d="M38 56c-1 14 -13 628 -13 682c15 23 23 26 91 30c6 -1 9 -4 9 -11l2 -35l-8 -707c0 -7 -7 -8 -30 -9c-36 0 -51 11 -51 50z" />
    <glyph glyph-name="o" unicode="o" horiz-adv-x="393" 
d="M25 259c0 138 73 250 167 250c151 0 176 -176 176 -273c0 -143 -69 -240 -175 -240c-102 0 -168 102 -168 263zM114 252c0 -107 24 -159 77 -159c63 0 80 42 87 152c0 53 -12 158 -89 158c-47 0 -70 -46 -75 -151z" />
    <glyph glyph-name="y" unicode="y" horiz-adv-x="443" 
d="M86 -115c54 -47 70 -50 112 -55c75 -3 143 83 143 181c0 9 0 18 -3 35l-6 5c-21 0 -27 0 -68 -22c-41 -19 -43 -19 -73 -21c-98 0 -166 107 -166 197l33 275c2 17 7 21 36 23c42 0 59 -8 59 -30l-28 -251c14 -83 29 -103 89 -113c81 0 108 33 111 124c0 11 -2 62 -13 263
c10 17 28 22 80 25c4 0 6 -2 7 -7l5 -44l13 -531c0 -114 -71 -201 -198 -208c-78 0 -157 36 -192 89c0 37 33 65 59 65z" />
    <glyph glyph-name="space" unicode=" " horiz-adv-x="295" 
 />
    <glyph glyph-name="n" unicode="n" horiz-adv-x="363" 
d="M271 11c0 76 -16 274 -31 306c-12 29 -32 44 -59 44c-36 0 -53 -20 -73 -76c0 -260 -2 -271 -49 -272c-19 0 -28 10 -29 29l-5 471c0 13 22 19 68 19c2 0 13 -5 13 -6l3 -61c17 0 19 0 42 8c1 1 30 3 36 3c98 0 136 -75 150 -284v-131c0 -48 -9 -63 -39 -65
c-10 0 -20 6 -27 15z" />
    <glyph glyph-name="t" unicode="t" horiz-adv-x="329" 
d="M33 364c-5 23 -6 27 -8 55c0 17 3 21 8 23l70 15c5 3 15 22 15 24v224c0 15 27 27 71 32c19 0 22 -1 22 -16v-233c0 -6 11 -14 36 -16l49 1l8 -8v-62c0 -11 0 -12 -79 -34c-9 -3 -14 -7 -14 -12v-341c0 -6 -43 -16 -54 -16c-6 0 -16 6 -16 8l-15 325c-1 23 -6 23 -70 23
c-10 0 -18 3 -23 8z" />
    <glyph glyph-name="d" unicode="d" horiz-adv-x="397" 
d="M268 43c-75 -14 -77 -14 -86 -14c-14 0 -42 2 -72 5c-51 17 -79 72 -85 178c0 162 73 240 240 254c9 2 9 3 11 46c0 26 -4 59 -12 105c-8 51 -8 56 -12 111c0 18 1 28 6 55c15 11 44 15 78 15c21 -1 35 -14 36 -32l-1 -711l-6 -77c0 -7 -6 -8 -19 -10c-38 0 -41 4 -57 63
c-3 9 -7 12 -21 12zM122 220c0 -64 27 -95 86 -97c30 0 55 11 74 34c1 5 5 78 5 102c0 79 -5 103 -72 105c-47 0 -86 -38 -89 -72c-2 -23 -2 -28 -4 -72z" />
    <glyph glyph-name="G" unicode="G" horiz-adv-x="582" 
d="M26 547c0 224 158 438 321 438c46 0 46 -1 52 -43c0 -73 -5 -105 -18 -116c-102 -13 -225 -182 -228 -297c0 -215 31 -378 173 -378c32 0 32 0 35 118l-6 132c0 70 1 77 147 95c11 2 18 4 22 5c23 -11 30 -28 32 -74c0 -65 -3 -70 -42 -85c-40 -16 -41 -20 -42 -80
c1 -22 6 -135 6 -141c-3 -68 -4 -86 -4 -96c-17 -23 -37 -29 -89 -31c-245 0 -350 137 -359 466v87z" />
    <glyph glyph-name="J" unicode="J" horiz-adv-x="484" 
d="M25 361c0 26 48 42 99 42c11 0 13 -2 15 -8c0 -174 25 -232 99 -232c96 0 102 101 102 334c-20 407 -21 435 -21 484c0 6 28 14 63 16h22c47 0 47 0 47 -65c0 -36 1 -81 8 -394c0 -405 -47 -534 -221 -534c-149 0 -206 100 -213 357z" />
    <glyph glyph-name="R" unicode="R" horiz-adv-x="616" 
d="M277 386c-29 0 -56 -24 -56 -52v-335h-122l-9 7c0 222 1 330 4 430c4 126 5 224 5 390c-6 14 -10 15 -54 22c-14 3 -15 8 -20 102c0 46 23 50 219 50c232 0 283 -124 283 -288c0 -111 -27 -179 -108 -271v-24l172 -361c0 -14 -2 -21 -8 -24l-101 -51
c-18 0 -18 0 -130 278c-47 122 -47 123 -75 127zM271 860c-27 0 -40 -9 -40 -25v-304c0 -5 3 -8 8 -8c83 0 156 81 156 173c0 85 -58 164 -124 164z" />
    <glyph glyph-name="S" unicode="S" horiz-adv-x="499" 
d="M42 33v133c0 6 5 9 12 9c19 0 38 -3 56 -9c19 -5 38 -8 57 -8c85 0 141 40 141 108c0 69 -28 86 -159 166c-85 57 -124 138 -124 254c0 187 150 311 374 311h33l16 -17c0 -96 0 -113 -7 -166c-178 0 -267 -47 -267 -141c0 -65 36 -108 150 -181
c103 -63 150 -135 150 -226c0 -155 -131 -267 -312 -267c-88 0 -120 10 -120 34z" />
    <glyph glyph-name="T" unicode="T" horiz-adv-x="545" 
d="M199 800h-145l-19 10c-10 85 -10 85 -10 102c0 19 10 30 29 33l408 68c46 0 58 -3 58 -36c0 -4 -4 -61 -10 -138l-19 -20l-165 -19l-10 -10c0 -142 0 -147 19 -388c20 -222 20 -243 20 -388l-10 -10h-107l-19 20z" />
    <glyph glyph-name="m" unicode="m" horiz-adv-x="599" 
d="M494 0c4 114 5 134 5 164c0 156 -20 217 -59 217s-90 -40 -90 -71v-300c0 -4 -11 -9 -15 -10c-66 0 -70 1 -70 20v309c0 39 -18 62 -50 62c-38 0 -45 -5 -86 -80c-3 -6 -4 -10 -4 -11v-280c0 -16 -16 -23 -55 -23c-8 0 -23 1 -25 3c-16 33 -20 40 -20 520
c9 15 24 20 62 20c13 0 23 -5 23 -11v-80c0 -8 6 -9 26 -10c12 0 18 4 49 35c26 26 45 36 65 36c30 0 37 -10 69 -61c5 -7 11 -11 20 -11c19 0 30 5 58 31c29 24 42 31 63 31c63 0 91 -56 111 -187c2 -8 3 -12 3 -13v-280c0 -15 -19 -25 -60 -30c-14 0 -17 1 -20 10z" />
    <glyph glyph-name="a" unicode="a" horiz-adv-x="360" 
d="M230 31c-16 -1 -31 -5 -45 -12c-16 -9 -29 -12 -52 -12c-68 0 -106 44 -107 121c0 99 61 149 181 149h32c9 10 10 11 11 25c0 78 -36 96 -81 96c-21 0 -26 -2 -90 -29c-9 -3 -18 -5 -27 -5c-15 0 -18 6 -22 35c0 69 51 101 160 103c80 0 139 -57 139 -135
c1 -20 5 -174 5 -223c0 -147 -7 -163 -47 -165c-25 0 -26 0 -42 44c-2 5 -7 8 -15 8zM99 140c1 -33 22 -50 56 -50c58 0 88 23 88 68c0 20 -26 46 -47 46c-50 0 -97 -28 -97 -64z" />
    <glyph glyph-name="C" unicode="C" horiz-adv-x="529" 
d="M26 526c0 259 167 459 394 469c39 0 54 -6 68 -15c4 -15 9 -86 9 -96c0 -38 -5 -60 -17 -76c-204 0 -311 -109 -311 -316c0 -245 81 -322 315 -328c11 -10 12 -14 20 -128c-14 -23 -36 -29 -127 -32c-216 0 -334 175 -351 522z" />
    <glyph glyph-name="u" unicode="u" horiz-adv-x="386" 
d="M25 373c0 95 7 107 77 114c11 0 25 -14 26 -26c-6 -32 -6 -38 -10 -96c0 -46 9 -193 12 -207c2 -21 27 -39 59 -44c54 0 63 50 74 282c0 25 -1 49 -4 73l8 19c39 12 42 13 51 13c36 0 37 -1 43 -51c-20 -286 -26 -353 -89 -416c-20 -20 -42 -28 -78 -29
c-29 0 -53 6 -72 19c-68 49 -87 123 -97 349z" />
    <glyph glyph-name="W" unicode="W" horiz-adv-x="825" 
d="M132 955c15 0 23 -12 32 -46l111 -478c3 -11 10 -21 18 -28c11 20 12 24 108 396c16 63 21 75 35 75l4 -1l138 -442l19 -18c4 3 16 16 18 27l65 515c5 41 9 47 36 47c55 0 83 -19 83 -74l-147 -902c-1 -7 -6 -10 -14 -10c-15 0 -18 6 -110 241c-36 97 -54 148 -69 202
c-3 6 -8 9 -14 9c-16 0 -17 0 -134 -470c-3 -6 -7 -9 -14 -9s-9 2 -13 19l-258 846c0 49 58 101 106 101z" />
    <glyph glyph-name="B" unicode="B" horiz-adv-x="516" 
d="M107 170v648c0 5 -4 6 -23 9c-16 -4 -36 -9 -37 -9c-10 0 -22 17 -22 26v113c0 19 54 35 127 35c229 0 320 -78 320 -284c0 -64 -25 -118 -91 -195v-26c77 -61 110 -119 110 -191c0 -208 -118 -295 -400 -295c-25 0 -40 9 -40 25v144h56zM264 436c-31 0 -48 -10 -48 -27
v-226c0 -15 15 -26 36 -26c71 0 111 53 111 144c0 54 -17 135 -99 135zM215 627c0 -43 11 -54 41 -54c69 0 107 49 107 138c0 82 -36 133 -96 133c-20 0 -34 -6 -42 -17c-8 -123 -8 -124 -10 -200z" />
    <glyph glyph-name="c" unicode="c" horiz-adv-x="387" 
d="M25 252c0 138 86 246 196 246c80 0 114 -14 114 -46c0 -9 -9 -66 -17 -66h-112c-15 0 -54 -39 -66 -73c-7 -23 -11 -50 -11 -82c0 -87 38 -138 102 -138c22 0 22 0 82 30c7 4 15 6 22 6c20 0 25 -15 27 -55c0 -46 -44 -67 -149 -75c-124 0 -188 85 -188 253z" />
    <glyph glyph-name="D" unicode="D" horiz-adv-x="620" 
d="M71 76c0 62 0 62 36 80c6 3 11 8 16 15c0 614 -3 677 -29 677h-52c-4 0 -11 11 -14 21l-2 75c0 42 9 46 85 51c305 0 484 -180 484 -500c0 -323 -173 -493 -501 -493c-22 13 -23 18 -23 74zM270 170c104 0 199 159 199 339c0 158 -102 310 -204 310c-22 0 -28 -4 -32 -15
v-258c0 -31 0 -42 6 -320c2 -52 2 -53 31 -56z" />
    <glyph glyph-name="period" unicode="." horiz-adv-x="207" 
d="M25 101c0 54 37 102 79 102c41 0 78 -48 78 -100c0 -57 -33 -96 -83 -96c-41 0 -74 45 -74 94z" />
    <glyph glyph-name="b" unicode="b" horiz-adv-x="418" 
d="M26 423c7 372 8 374 110 374c10 -11 12 -19 12 -88l-6 -156c0 -74 1 -75 20 -81c11 1 22 2 32 2c118 0 196 -95 198 -239c0 -125 -75 -221 -179 -226c-4 0 -10 1 -76 10c-14 0 -15 0 -44 -34c-5 -6 -8 -7 -24 -7c-41 0 -43 11 -43 445zM195 103c56 2 76 39 85 131
c0 68 -29 110 -77 110c-54 0 -76 -34 -79 -115c0 -78 27 -126 71 -126z" />
    <glyph glyph-name="k" unicode="k" horiz-adv-x="413" 
d="M168 248c-1 0 -3 0 -9 -2c-33 -33 -49 -54 -49 -63l-8 -158c-2 -16 -15 -21 -55 -21c-12 2 -12 3 -21 122l1 601c7 27 33 47 67 48c25 0 31 -16 32 -67c0 -34 -4 -90 -11 -150c-6 -72 -7 -76 -9 -144c0 -56 2 -56 38 -56c5 2 75 101 86 124c33 62 46 66 68 67
c28 0 55 -21 57 -48c0 -20 -1 -27 -8 -35l-90 -110c-6 -8 -7 -10 -8 -18c0 -37 15 -66 69 -133c52 -64 68 -92 69 -131c0 -24 -27 -48 -58 -51c-7 0 -21 10 -25 16l-110 192c-6 12 -13 17 -26 17z" />
    <glyph glyph-name="s" unicode="s" horiz-adv-x="330" 
d="M56 112c48 -22 58 -25 85 -25c48 0 74 17 74 49c0 30 -20 48 -89 81c-60 33 -88 79 -88 146c0 103 70 157 149 157c52 0 95 -20 95 -45c0 -22 -16 -59 -25 -59h-98c-17 0 -43 -35 -43 -54c0 -20 8 -42 25 -55c114 -46 164 -97 164 -171c0 -87 -64 -140 -170 -140
c-82 9 -109 19 -109 45c0 36 11 63 30 71z" />
    <glyph glyph-name="e" unicode="e" horiz-adv-x="393" 
d="M25 261c0 148 67 239 176 239c101 0 128 -40 167 -226c0 -41 -5 -44 -213 -64c-13 -2 -20 -12 -20 -30c0 -55 59 -81 104 -81c13 0 24 2 34 7c11 5 22 7 33 7c16 0 24 -14 30 -63c0 -33 -32 -49 -107 -54c-129 0 -204 106 -204 265zM122 318c0 -17 9 -25 27 -25
c26 0 36 1 109 7c16 6 16 6 20 34c0 45 -29 77 -71 77c-58 0 -85 -53 -85 -93z" />
    <glyph glyph-name="r" unicode="r" horiz-adv-x="340" 
d="M25 44c0 48 0 76 5 443c5 18 17 27 36 27s32 -11 42 -39c3 -5 7 -7 15 -7c78 33 81 34 108 35c52 0 83 -18 83 -48c0 -42 -15 -77 -34 -77c-14 0 -22 2 -38 9c-10 5 -17 6 -39 9c-37 0 -84 -37 -84 -67l5 -295c0 -27 -20 -33 -71 -35c-17 0 -28 15 -28 45z" />
    <glyph glyph-name="ampersand" unicode="&#x26;" horiz-adv-x="561" 
d="M384 61c-23 0 -36 -4 -83 -25c-45 -20 -61 -25 -84 -25c-108 0 -187 93 -187 217c0 46 5 55 76 177c9 17 14 33 14 50c0 32 -7 63 -33 120c-26 64 -32 88 -32 124c0 145 73 218 200 218c119 0 186 -79 186 -219c0 -79 -44 -149 -161 -253c-1 -1 -2 -5 -2 -10
c0 -62 73 -151 101 -151c26 0 30 9 58 92c9 26 20 33 40 33c47 -37 50 -51 54 -74c0 -25 -9 -48 -34 -84c-27 -42 -33 -58 -33 -84c0 -20 0 -22 33 -85c5 -9 7 -18 7 -29c0 -15 -26 -55 -44 -55c-14 0 -17 2 -35 31c-14 25 -24 32 -41 32zM119 222c0 -52 37 -112 91 -112
c35 0 97 9 97 64c0 39 -97 173 -128 173s-53 -45 -60 -125zM154 675c0 -96 24 -144 72 -144c50 0 105 91 105 167c0 67 -35 107 -94 107c-60 0 -79 -32 -83 -130z" />
    <glyph glyph-name="P" unicode="P" horiz-adv-x="612" 
d="M342 987c145 -4 215 -45 235 -143c6 -28 9 -61 9 -99c0 -198 -64 -287 -308 -437c-10 -10 -11 -11 -11 -13l-9 -257c0 -28 -25 -40 -90 -45c-16 0 -27 22 -27 63c1 4 3 52 3 68c-4 219 -4 225 -4 247c2 22 2 45 2 67c0 13 -1 72 -4 205c0 31 1 61 3 92
c-7 18 -10 24 -13 24l-82 3c-12 0 -19 18 -20 53c0 132 59 165 316 172zM282 436c109 80 160 161 162 262c0 87 -38 134 -112 136c-68 0 -77 -17 -77 -165c0 -208 3 -233 27 -233z" />
    <glyph glyph-name="v" unicode="v" horiz-adv-x="463" 
d="M227 15c-66 167 -133 309 -202 427c0 33 20 42 98 42c18 -45 26 -63 29 -69c34 -63 56 -115 66 -158l17 -16l16 16c93 242 103 267 122 267c15 0 65 -41 65 -52c-6 -6 -127 -287 -179 -435c-9 -24 -14 -36 -16 -38z" />
    <glyph glyph-name="H" unicode="H" horiz-adv-x="502" 
d="M121 989c6 0 18 -7 19 -11l2 -456c0 -13 8 -19 31 -22c67 0 145 7 145 12l20 16c7 59 7 60 9 135c-4 133 -4 152 -4 196c0 144 0 145 61 150c54 0 67 -4 67 -20l6 -950c-2 -27 -18 -34 -68 -37h-47l-9 19l-2 268c0 44 -10 62 -34 62l-103 -8c-67 -4 -67 -7 -70 -106
c0 -18 2 -79 5 -168c0 -75 -9 -87 -82 -92c-23 0 -31 10 -31 45l-11 918c6 44 16 49 96 49z" />
    <glyph glyph-name="M" unicode="M" horiz-adv-x="577" 
d="M25 52l57 857c0 48 7 64 26 64c69 -142 158 -368 169 -422c9 -26 18 -34 36 -34c14 0 15 0 52 97c72 176 72 178 105 290c17 55 28 75 41 97l9 -9c32 -888 32 -888 32 -965c-6 -18 -35 -28 -90 -28c-16 0 -16 4 -16 19l5 465c-4 7 -8 10 -13 10s-9 -3 -13 -10l-99 -199
c-2 -5 -6 -8 -13 -8c-11 0 -31 32 -31 38l-81 194l-17 18c-17 -12 -18 -16 -19 -70c0 -156 -6 -362 -13 -411c-2 -48 -3 -48 -118 -48c-2 7 -9 34 -9 55z" />
    <glyph glyph-name="E" unicode="E" horiz-adv-x="463" 
d="M27 923c5 16 19 27 37 30l306 43c30 0 43 -8 43 -33c0 -96 -6 -126 -25 -126l-208 -12c-13 0 -36 -25 -36 -36v-172c0 -16 25 -37 42 -37h160c19 0 30 -13 30 -32c0 -71 -15 -115 -37 -115h-165c-13 0 -30 -21 -30 -36v-172c0 -34 24 -41 110 -48c52 -9 92 -13 158 -19
c18 -6 26 -18 26 -40c0 -29 -5 -87 -37 -113c-142 0 -287 24 -323 38c-51 20 -51 21 -51 880z" />
    <glyph glyph-name="N" unicode="N" horiz-adv-x="511" 
d="M25 930c18 0 262 -444 303 -526c9 -15 21 -23 34 -23c10 0 11 0 12 95c0 70 -2 140 -6 210c-5 80 -5 111 -5 284l15 17l100 -1l8 -9c-14 -686 -16 -816 -16 -934c-2 -6 -3 -7 -11 -8c-15 0 -142 156 -259 375c-18 34 -24 41 -40 42c-10 0 -13 -1 -16 -8
c0 -121 1 -148 6 -220c5 -62 6 -113 6 -206c0 -8 -2 -10 -7 -10l-78 -9c-26 0 -33 77 -33 348c-2 60 -13 558 -13 583z" />
    <glyph glyph-name="q" unicode="q" horiz-adv-x="515" 
d="M25 287c0 114 76 215 162 215c13 -2 72 -9 81 -9c23 0 26 7 33 47c3 33 18 48 50 48c16 0 23 -2 23 -11c-1 -10 -2 -20 -3 -40c0 -103 0 -103 15 -582c4 -163 6 -164 90 -216c9 -6 14 -13 14 -22c0 -30 -14 -52 -39 -52c-95 0 -131 88 -148 253c-6 76 -8 89 -15 89h-124
c-7 0 -16 3 -25 9c-77 49 -114 130 -114 271zM118 252c0 -59 20 -103 61 -135h34c38 0 60 10 69 34v122c-4 82 -17 114 -79 114c-57 0 -77 -42 -85 -135z" />
    <glyph glyph-name="j" unicode="j" horiz-adv-x="325" 
d="M192 693c0 44 20 71 54 71s48 -23 52 -71c0 -44 -23 -74 -56 -74c-27 0 -44 26 -50 74zM25 -62c0 15 24 26 68 26c1 0 3 -2 4 -5c0 -108 13 -126 63 -126c36 0 54 25 64 92c0 151 0 151 -13 565c0 5 22 9 54 10h21c8 -4 9 -10 9 -20c0 -40 1 -143 5 -410
c0 -256 -30 -338 -140 -338c-96 0 -135 62 -135 206z" />
    <glyph glyph-name="w" unicode="w" horiz-adv-x="578" 
d="M99 511c9 0 15 -6 22 -25l67 -262c1 -7 5 -12 12 -15c3 3 6 7 7 11c86 241 86 241 100 241l85 -243l15 -11c7 5 11 10 11 15l53 279c3 22 6 25 20 25c52 0 61 -15 61 -42l-114 -487c0 -4 -3 -6 -9 -6c-15 0 -87 156 -115 244c-3 4 -6 6 -12 6c-7 0 -15 -9 -96 -253
c-2 -3 -5 -5 -9 -5c-7 0 -7 2 -9 10l-163 470c0 23 26 40 74 48z" />
    <glyph glyph-name="comma" unicode="," horiz-adv-x="184" 
d="M67 -90c3 10 4 20 4 29c0 20 -4 28 -37 98c-6 13 -9 28 -9 45c0 59 17 82 62 82c43 0 72 -32 72 -79c0 -82 -29 -147 -82 -185z" />
    <glyph glyph-name="K" unicode="K" horiz-adv-x="543" 
d="M171 335c0 -105 0 -105 10 -295c-10 -26 -25 -31 -68 -36l-61 1l-10 19c0 236 -1 299 -14 656l-3 294c7 19 25 26 72 28c33 -2 51 -2 66 -2l8 -18v-379c0 -15 13 -37 23 -37c25 0 98 158 177 373c6 14 6 15 30 19c20 0 96 -55 97 -56l3 -17c0 -17 -68 -166 -165 -360
c-23 -54 -23 -55 -27 -79c0 -18 12 -38 45 -74c16 -16 130 -182 164 -237c0 -40 -1 -42 -61 -138h-26c-21 42 -93 141 -221 317c-9 13 -16 23 -20 29c-9 0 -15 -1 -19 -8z" />
    <glyph glyph-name="p" unicode="p" horiz-adv-x="430" 
d="M76 604c35 0 51 -10 51 -28v-102l9 -10c46 17 52 18 96 20c105 0 173 -89 173 -227c0 -159 -67 -255 -180 -255c-85 9 -94 10 -107 10l-19 -297c-1 -14 -2 -14 -31 -19c-11 0 -43 5 -43 19v861c0 19 12 26 51 28zM118 215c0 -63 32 -102 83 -102c70 0 111 50 111 135
c0 76 -41 124 -106 124c-62 0 -83 -41 -88 -157z" />
    <glyph glyph-name="A" unicode="A" horiz-adv-x="605" 
d="M355 257c-145 0 -157 -17 -175 -154c-8 -73 -29 -109 -66 -109c-73 0 -88 10 -88 54l299 933c5 18 6 18 14 18c10 0 16 -8 25 -35l215 -925c0 -45 -19 -54 -95 -62c-17 0 -24 4 -27 18l-47 236c-4 21 -9 22 -55 26zM261 379l20 -9c64 0 102 13 102 34
c0 8 -34 172 -44 205c-1 5 -5 7 -13 7c-12 0 -14 -2 -19 -19l-46 -175v-43z" />
    <glyph glyph-name="trademark" unicode="&#x2122;" horiz-adv-x="562" 
d="M108 885h-69l-9 6c-5 39 -5 40 -5 49s5 14 14 15l204 33c12 0 18 -6 18 -18c-1 -9 -4 -58 -4 -66l-10 -9l-79 -10l-4 -4c0 -75 2 -121 9 -185c8 -63 10 -109 10 -185l-5 -4h-51l-10 9zM285 529l27 409c0 16 3 27 8 30h5c24 -50 34 -77 84 -209c2 -5 7 -8 14 -8
c10 0 63 130 74 185c4 16 11 31 20 45l4 -3c11 -290 16 -434 16 -461c-5 -9 -12 -10 -40 -13c-9 0 -12 2 -12 7c3 169 3 202 3 223c-2 3 -4 5 -6 5c-3 0 -5 -2 -6 -5l-48 -94c0 -3 -2 -4 -5 -4c-7 0 -15 15 -15 18l-39 93l-8 8c-9 -4 -12 -8 -12 -187c0 -64 0 -65 -60 -65
c-3 9 -4 15 -4 26z" />
    <glyph glyph-name="AE" unicode="&#xc6;" horiz-adv-x="998" 
d="M355 257c-145 0 -157 -17 -175 -154c-8 -73 -29 -109 -66 -109c-73 0 -88 10 -88 54l299 933c5 18 6 18 14 18c10 0 16 -8 25 -35l215 -925c0 -45 -19 -54 -95 -62c-17 0 -24 4 -27 18l-47 236c-4 21 -9 22 -55 26zM261 379l20 -9c64 0 102 13 102 34
c0 8 -34 172 -44 205c-1 5 -5 7 -13 7c-12 0 -14 -2 -19 -19l-46 -175v-43zM562 923c5 16 19 27 37 30l306 43c30 0 43 -8 43 -33c0 -96 -6 -126 -25 -126l-208 -12c-13 0 -36 -25 -36 -36v-172c0 -16 25 -37 42 -37h160c19 0 30 -13 30 -32c0 -71 -15 -115 -37 -115h-165
c-13 0 -30 -21 -30 -36v-172c0 -34 24 -41 110 -48c53 -9 92 -13 158 -19c18 -6 26 -18 26 -40c0 -29 -5 -87 -37 -113c-142 0 -287 24 -323 38c-51 20 -51 21 -51 880z" />
    <glyph glyph-name="ae" unicode="&#xe6;" horiz-adv-x="703" 
d="M230 31c-16 -1 -31 -5 -45 -12c-16 -9 -29 -12 -52 -12c-68 0 -106 44 -107 121c0 99 61 149 181 149h32c9 10 10 11 11 25c0 78 -36 96 -81 96c-21 0 -26 -2 -90 -29c-9 -3 -18 -5 -27 -5c-15 0 -18 6 -22 35c0 69 51 101 160 103c80 0 139 -57 139 -135
c1 -20 5 -174 5 -223c0 -147 -7 -163 -47 -165c-25 0 -26 0 -42 44c-2 5 -7 8 -15 8zM99 140c1 -33 22 -50 56 -50c58 0 88 23 88 68c0 20 -26 46 -47 46c-50 0 -97 -28 -97 -64zM335 261c0 148 67 239 176 239c101 0 128 -40 167 -226c0 -41 -5 -44 -213 -64
c-13 -2 -20 -12 -20 -30c0 -55 59 -81 104 -81c13 0 24 2 34 7c11 5 22 7 33 7c16 0 24 -14 30 -63c0 -33 -32 -49 -107 -54c-129 0 -204 106 -204 265zM432 318c0 -17 9 -25 27 -25c26 0 36 1 109 7c16 6 16 6 20 34c0 45 -29 77 -71 77c-58 0 -85 -53 -85 -93z" />
    <glyph glyph-name="oe" unicode="&#x153;" horiz-adv-x="746" 
d="M25 259c0 138 73 250 167 250c151 0 176 -176 176 -273c0 -143 -69 -240 -175 -240c-102 0 -168 102 -168 263zM114 252c0 -107 24 -159 77 -159c63 0 80 42 87 152c0 53 -12 158 -89 158c-47 0 -70 -46 -75 -151zM378 261c0 148 67 239 176 239c101 0 128 -40 167 -226
c0 -41 -5 -44 -213 -64c-13 -2 -20 -12 -20 -30c0 -55 59 -81 104 -81c13 0 24 2 34 7c11 5 22 7 33 7c16 0 24 -14 30 -63c0 -33 -32 -49 -107 -54c-129 0 -204 106 -204 265zM475 318c0 -17 9 -25 27 -25c26 0 36 1 109 7c16 6 16 6 20 34c0 45 -29 77 -71 77
c-58 0 -85 -53 -85 -93z" />
    <glyph glyph-name="colon" unicode=":" horiz-adv-x="207" 
d="M25 401c0 54 37 102 79 102c41 0 78 -48 78 -100c0 -57 -33 -96 -83 -96c-41 0 -74 45 -74 94zM25 91c0 54 37 102 79 102c41 0 78 -48 78 -100c0 -57 -33 -96 -83 -96c-41 0 -74 45 -74 94z" />
    <glyph glyph-name="semicolon" unicode=";" horiz-adv-x="207" 
d="M81 -90c3 10 4 20 4 29c0 20 -4 28 -37 98c-6 13 -9 28 -9 45c0 59 17 82 62 82c43 0 72 -32 72 -79c0 -82 -29 -147 -82 -185zM25 401c0 54 37 102 79 102c41 0 78 -48 78 -100c0 -57 -33 -96 -83 -96c-41 0 -74 45 -74 94z" />
    <glyph glyph-name="O" unicode="O" horiz-adv-x="718" 
d="M25 511c0 268 143 487 325 487c287 0 343 -325 343 -531c0 -279 -136 -468 -341 -468c-199 0 -327 202 -327 512zM179 503c0 -233 57 -352 170 -352c132 0 184 98 191 335c0 219 -73 348 -196 348c-104 0 -157 -107 -165 -331z" />
    <glyph glyph-name="OE" unicode="&#x152;" horiz-adv-x="1141" 
d="M25 511c0 268 143 487 325 487c287 0 343 -325 343 -531c0 -279 -136 -468 -341 -468c-199 0 -327 202 -327 512zM179 503c0 -233 57 -352 170 -352c132 0 184 98 191 335c0 219 -73 348 -196 348c-104 0 -157 -107 -165 -331zM705 923c5 16 19 27 37 30l306 43
c30 0 43 -8 43 -33c0 -96 -6 -126 -25 -126l-208 -12c-13 0 -36 -25 -36 -36v-172c0 -16 25 -37 42 -37h160c19 0 30 -13 30 -32c0 -71 -15 -115 -37 -115h-165c-13 0 -30 -21 -30 -36v-172c0 -34 24 -41 110 -48c53 -9 92 -14 158 -19c18 -6 26 -18 26 -40
c0 -29 -5 -87 -37 -113c-142 0 -287 24 -323 38c-51 20 -51 21 -51 880z" />
    <glyph glyph-name="ordfeminine" unicode="&#xaa;" horiz-adv-x="360" 
d="M230 522c-16 -1 -31 -5 -45 -12c-16 -9 -29 -12 -52 -12c-68 0 -106 44 -107 121c0 99 61 149 181 149h32c9 10 10 11 11 25c0 78 -36 96 -81 96c-21 0 -26 -2 -90 -29c-9 -3 -18 -5 -27 -5c-15 0 -18 6 -22 35c0 69 51 101 160 103c80 0 139 -57 139 -135
c1 -20 5 -174 5 -223c0 -152 -8 -163 -47 -165c-25 0 -26 0 -42 44c-2 5 -7 8 -15 8zM99 631c1 -33 22 -50 56 -50c58 0 88 23 88 68c0 20 -26 46 -47 46c-50 0 -97 -28 -97 -64z" />
    <glyph glyph-name="quotedbl" unicode="&#x22;" horiz-adv-x="344" 
d="M67 700c3 10 4 20 4 29c0 20 -4 28 -37 98c-6 13 -9 28 -9 45c0 59 17 82 62 82c43 0 72 -32 72 -79c0 -82 -29 -147 -82 -185zM227 720c3 10 4 20 4 29c0 20 -4 28 -37 98c-6 13 -9 28 -9 45c0 59 17 82 62 82c43 0 72 -32 72 -79c0 -82 -29 -147 -82 -185z" />
    <glyph glyph-name="bullet" unicode="&#x2022;" horiz-adv-x="241" 
d="M25 491c0 66 45 125 96 125c52 0 95 -63 95 -122c0 -69 -40 -117 -101 -117c-48 0 -90 53 -90 114z" />
    <glyph glyph-name="quotedblright" unicode="&#x201d;" horiz-adv-x="344" 
d="M67 700c3 10 4 20 4 29c0 20 -4 28 -37 98c-6 13 -9 28 -9 45c0 59 17 82 62 82c43 0 72 -32 72 -79c0 -82 -29 -147 -82 -185zM227 720c3 10 4 20 4 29c0 20 -4 28 -37 98c-6 13 -9 28 -9 45c0 59 17 82 62 82c43 0 72 -32 72 -79c0 -82 -29 -147 -82 -185z" />
    <glyph glyph-name="quoteright" unicode="&#x2019;" horiz-adv-x="184" 
d="M67 700c3 10 4 20 4 29c0 20 -4 28 -37 98c-6 13 -9 28 -9 45c0 59 17 82 62 82c43 0 72 -32 72 -79c0 -82 -29 -147 -82 -185z" />
    <glyph glyph-name="quotedblleft" unicode="&#x201c;" horiz-adv-x="344" 
d="M277 964c-3 -11 -4 -22 -4 -31c0 -17 6 -36 18 -59c23 -41 28 -58 28 -82c0 -59 -17 -82 -62 -82c-43 0 -72 32 -72 79c0 84 28 146 82 185zM117 944c-3 -11 -4 -22 -4 -31c0 -17 6 -36 18 -59c23 -41 28 -58 28 -82c0 -59 -17 -82 -62 -82c-43 0 -72 32 -72 79
c0 84 28 146 82 185z" />
    <glyph glyph-name="quoteleft" unicode="&#x2018;" horiz-adv-x="184" 
d="M117 964c-3 -11 -4 -22 -4 -31c0 -17 6 -36 18 -59c23 -41 28 -58 28 -82c0 -59 -17 -82 -62 -82c-43 0 -72 32 -72 79c0 84 28 146 82 185z" />
    <glyph glyph-name="F" unicode="F" horiz-adv-x="458" 
d="M26 920c0 76 0 81 156 83c127 0 240 -14 244 -18c4 -13 5 -22 6 -67c0 -75 -24 -89 -80 -93c-97 10 -116 12 -126 12c-59 0 -69 -17 -76 -110c0 -35 0 -35 20 -187v-10c7 -5 23 -11 29 -11c14 0 122 14 134 18c11 -2 14 -6 18 -24c0 -39 -6 -123 -12 -125l-148 -18
c-9 0 -21 -14 -25 -74c0 -53 4 -145 14 -270l-12 -15l-107 -14l-19 31z" />
    <glyph glyph-name="X" unicode="X" horiz-adv-x="706" 
d="M26 106c0 34 41 88 198 258c12 14 53 60 66 79l-13 42l-211 294c-2 2 -6 25 -6 40c0 58 11 112 58 119c8 0 17 -2 27 -5l201 -272c9 -18 14 -22 26 -22c37 0 59 36 99 175c36 126 68 174 114 176c45 0 93 -50 93 -97l-1 -11c-231 -363 -231 -364 -237 -395
c0 -40 0 -40 236 -287c2 -11 4 -29 4 -44c0 -71 -22 -103 -72 -104c-42 0 -71 37 -166 202c-29 48 -53 71 -73 71c-15 0 -15 0 -30 -23c-105 -131 -241 -301 -249 -307c-45 26 -63 56 -64 111z" />
    <glyph glyph-name="U" unicode="U" horiz-adv-x="606" 
d="M25 735c0 182 18 195 53 207c28 12 57 20 71 21c19 0 44 -28 46 -53c-12 -90 -14 -132 -15 -222c0 -62 15 -361 19 -382c5 -43 56 -88 99 -88c49 0 93 72 97 156c21 313 22 334 23 433c0 41 -2 81 -6 119l14 39c32 14 71 26 83 26c62 0 64 -12 72 -97
c0 -107 -26 -489 -51 -609c-42 -198 -112 -281 -224 -285c-195 0 -264 189 -281 735z" />
    <glyph glyph-name="V" unicode="V" horiz-adv-x="748" 
d="M366 29c-104 301 -222 581 -341 809c0 64 33 79 166 79c3 -10 30 -84 50 -129c74 -166 94 -226 110 -300l29 -31l27 31c110 357 172 505 206 505c29 0 110 -76 110 -98c-48 -97 -239 -610 -316 -866l-14 -30z" />
    <glyph glyph-name="f" unicode="f" horiz-adv-x="459" 
d="M38 344c-7 0 -11 6 -13 18c0 60 1 66 76 68c10 1 17 6 20 17v43c0 232 7 301 103 364c21 13 44 20 69 20c102 0 141 -48 141 -173c0 -30 -2 -58 -10 -110c-7 -14 -14 -15 -47 -20c-14 0 -14 1 -17 38c-7 143 -11 161 -35 161c-98 0 -110 -16 -112 -166
c2 -85 4 -123 5 -152h80c6 0 7 0 10 -19c0 -47 -25 -72 -80 -79c-9 -1 -14 -5 -14 -10v-313c0 -22 -21 -31 -52 -31c-8 5 -25 19 -25 21v323h-99z" />
    <glyph glyph-name="Q" unicode="Q" horiz-adv-x="797" 
d="M569 82c-94 -55 -163 -79 -226 -79c-173 0 -318 195 -318 503c0 271 146 492 332 492c238 0 327 -180 327 -594c0 -43 -7 -78 -25 -136c-11 -35 -11 -43 -11 -57c0 -18 0 -18 113 -141c7 -9 11 -18 11 -29c0 -35 -34 -62 -79 -62l-113 103h-11zM182 513
c0 -234 34 -282 106 -339c5 -3 8 -4 9 -4h128l36 27l-116 143v49l53 64h27l112 -103c13 9 14 9 26 163c0 193 -80 330 -208 330c-113 0 -166 -101 -173 -330z" />
    <glyph glyph-name="L" unicode="L" horiz-adv-x="407" 
d="M30 958l18 22l109 9l11 -9c2 -3 2 -4 7 -143c0 -70 -4 -132 -27 -463v-189l10 -9l190 -5l21 -18c1 0 12 -111 12 -117c0 -28 -8 -30 -55 -35l-267 2c-19 2 -34 10 -34 47l3 115z" />
    <glyph glyph-name="exclamdown" unicode="&#xa1;" horiz-adv-x="214" 
d="M44 709l16 17h88c8 0 12 -9 15 -35c-2 -150 -8 -609 -9 -662c-7 -22 -27 -29 -81 -29c-29 0 -29 1 -29 709zM30 881c0 70 30 112 79 112c43 0 69 -37 75 -104c0 -68 -26 -100 -81 -100c-44 0 -65 30 -73 92z" />
    <glyph glyph-name="ellipsis" unicode="&#x2026;" horiz-adv-x="621" 
d="M25 101c0 54 37 102 79 102c41 0 78 -48 78 -100c0 -57 -33 -96 -83 -96c-41 0 -74 45 -74 94zM232 101c0 54 37 102 79 102c41 0 78 -48 78 -100c0 -57 -33 -96 -83 -96c-41 0 -74 45 -74 94zM439 101c0 54 37 102 79 102c41 0 78 -48 78 -100c0 -57 -33 -96 -83 -96
c-41 0 -74 45 -74 94z" />
    <glyph glyph-name="quotedblbase" unicode="&#x201e;" horiz-adv-x="344" 
d="M67 11c3 10 4 20 4 29c0 20 -4 28 -37 98c-6 13 -9 28 -9 45c0 59 17 82 62 82c43 0 72 -32 72 -79c0 -82 -29 -147 -82 -185zM227 31c3 10 4 20 4 29c0 20 -4 28 -37 98c-6 13 -9 28 -9 45c0 59 17 82 62 82c43 0 72 -32 72 -79c0 -82 -29 -147 -82 -185z" />
    <glyph glyph-name="quotesinglbase" unicode="&#x201a;" horiz-adv-x="184" 
d="M67 11c3 10 4 20 4 29c0 20 -4 28 -37 98c-6 13 -9 28 -9 45c0 59 17 82 62 82c43 0 72 -32 72 -79c0 -82 -29 -147 -82 -185z" />
    <glyph glyph-name="periodcentered" unicode="&#xb7;" horiz-adv-x="241" 
d="M25 491c0 66 45 125 96 125c52 0 95 -63 95 -122c0 -69 -40 -117 -101 -117c-48 0 -90 53 -90 114z" />
    <glyph glyph-name="bar" unicode="|" horiz-adv-x="167" 
d="M37 34c-5 185 -6 303 -6 945l20 27h67c9 0 17 -23 19 -55c-11 -778 -12 -837 -12 -907c-12 -42 -20 -45 -57 -45c-14 0 -23 10 -31 35z" />
    <glyph glyph-name="I" unicode="I" horiz-adv-x="332" 
d="M45 43c0 57 2 64 45 91c22 12 27 166 27 692c0 8 -9 24 -15 24l-47 2c-17 0 -29 36 -29 87c0 30 71 55 178 61c56 5 102 -17 102 -49c0 -50 -1 -52 -37 -61c-31 -6 -45 -23 -45 -52l1 -683c0 -18 3 -19 39 -23c31 -2 39 -8 39 -26c-6 -55 -6 -62 -6 -80
c-10 -29 -108 -35 -227 -35c-19 0 -21 5 -25 52z" />
    <glyph glyph-name="exclam" unicode="!" horiz-adv-x="214" 
d="M73 992c54 0 74 -7 81 -29c1 -56 7 -513 9 -662c0 -19 -7 -35 -15 -35h-88l-16 17c0 708 0 709 29 709zM30 111c0 52 32 92 73 92c52 0 81 -30 81 -100c0 -60 -32 -104 -75 -104c-52 0 -71 33 -79 112z" />
    <glyph glyph-name="Y" unicode="Y" horiz-adv-x="644" 
d="M276 357l1 114c0 3 -10 23 -22 47l-75 131c-10 30 -18 41 -89 139c0 1 -3 5 -4 6c0 9 -21 41 -45 68c-12 15 -17 27 -17 39c0 32 46 50 137 50c5 -4 8 -8 11 -13l96 -204l40 -109l19 -9c22 0 23 2 71 161c4 15 8 24 10 29c9 9 14 17 16 26c3 9 8 19 15 28l50 113
c8 15 19 22 36 22c16 0 17 0 54 -26c39 -22 39 -22 39 -49c0 -1 -1 -4 -3 -7c-64 -107 -184 -326 -222 -417c0 -108 2 -170 7 -247c5 -69 8 -138 8 -207c0 -36 -2 -45 -118 -61c-23 0 -24 5 -28 43c13 312 13 312 13 333z" />
    <glyph glyph-name="x" unicode="x" horiz-adv-x="435" 
d="M25 66c0 8 2 15 6 21l130 162v16l-103 156c-3 4 -4 8 -5 11v13c0 14 2 20 8 26l43 50c4 4 5 5 19 6h8c3 0 6 -1 7 -4l29 -56v-10l54 -102c3 -4 6 -6 10 -6c14 0 20 16 21 21l81 132c2 5 3 6 16 7c9 0 18 -3 25 -9l33 -35l2 -25l-126 -170l-4 -13c0 -8 10 -27 21 -38
l77 -88c2 -4 4 -8 7 -11c7 -6 21 -18 21 -30c0 -2 -3 -11 -5 -13l-53 -66c-2 -3 -4 -4 -6 -4h-15c-2 0 -4 1 -6 4l-84 140c-2 2 -10 3 -11 3c-2 0 -8 -1 -10 -3l-136 -166c-1 -2 -3 -3 -6 -3c-14 0 -16 1 -19 6l-29 69v9z" />
    <glyph glyph-name="copyright" unicode="&#xa9;" horiz-adv-x="1631" 
d="M409 71c0 4 3 6 9 6c9 0 9 0 45 -6c7 -14 14 -24 17 -27c6 2 7 6 10 27h7c0 -28 -13 -55 -34 -71h-5l16 27l-16 33c-2 -20 -14 -38 -28 -38c-3 0 -12 4 -13 5v-27l-8 5v66zM551 11c30 0 32 0 32 4c-1 3 -1 7 -1 8c-25 0 -31 9 -31 26c0 5 9 28 11 28h34
c0 -75 -4 -76 -24 -78c-15 0 -19 2 -21 12zM299 59c0 31 31 36 47 36c0 -5 -2 -9 -6 -10c-25 -5 -30 -11 -30 -28c0 -18 5 -24 18 -24h13c4 0 6 -2 7 -6c-4 -2 -14 -5 -16 -5c-23 0 -33 11 -33 37zM359 50c0 20 5 27 19 27s21 -9 21 -25c0 -17 -10 -30 -23 -30s-14 3 -17 28
zM611 93c4 -11 4 -12 27 -16c4 -2 6 -11 8 -50h-11v35c-3 2 -11 5 -17 5c-8 0 -8 -7 -8 -28c0 -9 -2 -14 -5 -17v71h6zM704 57c0 15 21 37 35 37h2c11 0 27 -15 29 -29c0 -30 -14 -43 -34 -43c-18 0 -32 17 -32 35zM796 27c6 10 22 36 28 44v6c-3 1 -4 3 -6 5
c-3 0 -5 -1 -16 -5v2c0 9 1 14 14 14c10 0 19 -7 19 -16c0 -7 0 -9 -22 -40l2 -7h20c-4 -3 -18 -8 -28 -8c-1 0 -3 1 -11 5zM846 66c0 15 11 27 24 27c18 0 19 -5 19 -55c-12 -12 -17 -16 -20 -16c-13 0 -17 7 -23 44zM949 60c0 25 5 33 22 33c20 0 22 -5 22 -55
c-5 -7 -17 -16 -22 -16c-15 0 -17 7 -22 38zM1053 27c5 10 24 40 28 44v6c-2 1 -4 3 -6 5c-3 0 -4 0 -16 -5v2c0 9 1 14 13 14c11 0 20 -7 20 -16c0 -7 0 -9 -22 -40c0 -4 2 -6 2 -7h20c-8 -6 -15 -9 -22 -9s-12 2 -17 6zM1102 60c0 25 5 33 22 33c20 0 22 -5 22 -55
c-5 -7 -17 -16 -22 -16c-15 0 -17 7 -22 38zM1210 30c14 0 24 8 24 19c0 5 -2 7 -6 7c-4 1 -6 3 -6 8c1 2 5 12 6 15v3c-5 2 -10 4 -11 5l-2 8c13 0 14 0 30 -46c0 -13 -11 -27 -22 -27c-5 0 -10 3 -13 8zM529 77c-16 -11 -16 -13 -16 -40c0 -6 -3 -10 -6 -10v50h22zM534 71
c1 3 3 5 6 6v-50c-5 19 -6 25 -6 44zM654 71l7 11l2 1c1 0 3 -1 19 -12c-10 -3 -11 -5 -12 -22c0 -10 2 -12 7 -14c6 -2 7 -5 7 -10c-23 0 -30 4 -30 46zM906 77l19 18h3v-68h-9v44zM1163 77l19 18h2v-68h-8v44zM364 49c0 -11 4 -17 11 -17c12 0 14 6 14 26v11
c-20 0 -25 -6 -25 -20zM419 51c0 -13 5 -19 16 -19c1 0 1 0 1 1c4 0 5 0 7 35c-19 0 -24 -4 -24 -17zM561 51c0 -13 5 -19 16 -19c1 0 1 0 1 1c5 0 6 8 8 35c-20 0 -25 -3 -25 -17zM714 55c0 -14 8 -23 22 -23c7 0 28 6 28 23c0 4 -4 14 -6 16l-22 -5l-2 -4c0 -9 0 -9 8 -9
c3 0 7 -1 11 -4c-2 -5 -10 -5 -23 -5c-3 0 -5 4 -5 13c0 15 8 20 28 20c-2 4 -2 4 -14 6c-14 0 -25 -14 -25 -28zM856 63c0 -25 4 -31 16 -31l6 6v39c0 4 0 4 -10 6c-10 0 -11 0 -12 -20zM960 44c0 -2 10 -12 16 -12l6 6v39c0 4 -11 7 -22 7v-40zM1113 44
c0 -2 10 -12 16 -12l6 6v39c0 4 -11 7 -22 7v-40zM1035 55c4 0 6 -2 7 -6h-32c1 4 3 6 7 6h18zM537 91c-2 0 -3 2 -3 3h6c0 -1 -1 -3 -3 -3zM1441 311c-1 0 -5 -4 -5 -5c-32 -50 -35 -50 -87 -50c-6 1 -12 3 -17 6c58 0 74 12 98 66c0 3 -32 18 -57 27c-7 3 -11 7 -14 11
l9 1c3 0 16 -3 46 -12c-2 2 -4 3 -5 6c-24 12 -106 83 -106 93h7c27 -27 111 -88 115 -88c3 0 15 8 16 11c0 78 0 83 -38 159l-1 6c24 0 52 -85 56 -165l5 -5c0 4 2 7 4 14c14 34 16 48 23 89l6 6c0 -26 -1 -45 -10 -67c-7 -17 -10 -34 -10 -52c47 0 87 26 91 59l1 -11
c0 -33 -19 -40 -78 -60c-2 -2 -4 -3 -5 -6c82 -43 121 -81 121 -117l-1 -8c-11 33 -58 80 -84 93l-3 -1c0 -24 -15 -49 -30 -49c-11 0 -27 10 -36 22c0 -55 15 -101 49 -147h-5c-37 24 -55 92 -55 174zM307 366c-12 13 -18 27 -19 44l17 11v120l-33 38v5c141 8 141 8 159 8
c0 -23 -14 -84 -28 -84c-4 13 -17 33 -23 33c-3 0 -9 -3 -10 -3v-117l50 -12v-2c-8 -22 -22 -33 -52 -41v-210c-27 0 -54 63 -61 84v126zM1059 175c66 66 82 84 82 101c-6 14 -6 15 -6 17c0 6 4 11 22 24c16 13 23 22 23 33c0 17 -57 65 -86 73c-16 5 -37 27 -37 39
c0 8 5 13 21 13h3l87 88c6 6 14 9 23 9c16 0 24 4 31 13c6 6 6 6 24 8c0 -20 -2 -25 -23 -85c-8 0 -9 0 -28 28l-60 -66c79 -64 79 -64 99 -115l-93 -136c-49 -49 -64 -56 -82 -56v12zM671 530c-3 7 -5 13 -6 17v27c3 -3 6 -5 9 -6h12c6 0 8 2 10 8c4 8 6 9 13 9l11 -11
l49 -159c6 -12 8 -14 11 -16c8 4 11 9 11 16c-8 33 -9 39 -11 104v55c3 -3 7 -5 11 -6l24 3c20 16 24 18 33 18c0 -22 -3 -34 -11 -43v-362c-15 0 -18 3 -24 20c-4 15 -27 50 -44 69l-33 99c-4 17 -12 32 -19 38v-231c-18 0 -43 65 -44 68l-2 4v279zM936 514
c-5 3 -6 3 -58 65v6h159v-17c0 -1 -18 -29 -47 -32v-358c-16 0 -19 6 -26 33c-1 8 -5 13 -28 46v257zM594 587c2 -2 22 -36 28 -46c-5 -169 -6 -218 -6 -224l-60 -60c-25 -20 -25 -20 -49 -44c-16 0 -22 6 -33 38l-11 17v278c0 15 2 17 27 30c5 3 8 6 11 11h93zM523 283
c16 0 39 32 44 61c5 149 5 165 5 182c0 19 -8 20 -49 20v-263zM1343 372c-1 -2 -2 -3 -3 -3s-2 1 -3 3c0 1 1 2 3 2s3 -1 3 -2zM1299 464c3 0 5 -2 5 -5s-2 -5 -5 -5s-4 2 -4 5s1 5 4 5zM1283 563h33c-7 -15 -11 -45 -11 -71c-10 5 -12 14 -17 65zM1324 564
c13 0 19 -4 24 -18c3 12 13 21 22 21v-75h-5c-5 16 -13 27 -25 33v-33c-11 5 -16 16 -16 72zM900 585c3 0 5 -2 5 -6c0 -3 -2 -5 -5 -5s-4 2 -4 5c0 4 1 6 4 6zM695 809c-9 9 -13 19 -13 33c3 1 7 3 11 5v109l-32 39h125l6 -9c-7 -14 -26 -29 -39 -30v-109c4 0 33 -4 38 -5
c4 -4 5 -5 5 -6c-21 -30 -22 -31 -43 -33v-134h40c0 -12 -4 -16 -29 -24c-14 -10 -15 -10 -17 -11c-18 -2 -19 -3 -38 -17h-5c-7 7 -9 10 -9 11v181zM31 634c42 56 58 86 66 115c3 9 9 17 16 24c8 7 12 15 12 25c0 13 -46 48 -64 51c-12 4 -36 25 -36 36c0 9 12 23 20 23h3
l60 65c21 7 27 11 27 22h60c-13 -52 -13 -52 -21 -72h-6c-14 22 -15 22 -16 22c-23 -16 -49 -46 -49 -60c68 -52 77 -60 77 -95l-1 -9c-68 -102 -94 -136 -109 -136c-25 -23 -26 -23 -39 -23v12zM1387 634c57 86 57 87 65 115c3 9 9 17 16 24c8 7 12 15 12 25
c0 17 -51 49 -64 51c-11 4 -35 23 -35 36c0 9 11 23 19 23h3l60 65c21 7 27 11 27 22h61c-13 -51 -18 -64 -22 -72h-6c0 2 -14 22 -16 22c-23 -16 -49 -46 -49 -60c68 -52 77 -60 77 -95l-1 -9c-67 -101 -95 -136 -109 -136c-25 -23 -26 -23 -38 -23v12zM829 962
c-2 0 -12 3 -16 5v6c0 4 3 5 19 5h14c29 7 60 11 76 11l6 6c21 0 38 -23 38 -47c0 -15 -5 -30 -17 -48c-15 -27 -16 -35 -16 -58l66 -192h-11c-7 18 -28 41 -44 49c-15 15 -21 26 -37 75c-7 23 -17 43 -31 62v-208h-8c-3 16 -9 30 -17 43c-15 25 -16 34 -16 55
c-5 171 -6 232 -6 236zM510 962l-15 17c0 8 0 9 10 10h7c3 1 5 3 6 6h98l22 -33v-224c-16 -29 -42 -71 -44 -71c-29 -8 -30 -9 -49 -28h-5c-14 91 -14 91 -30 99v224zM1021 842c13 13 14 14 22 77c2 11 3 20 5 26c0 20 -1 26 -11 50h109c6 0 12 -22 24 -108
c6 -29 7 -30 13 -36c5 -3 7 -7 7 -14c-5 -32 -6 -38 -6 -39c0 -26 3 -52 9 -78c6 -25 9 -51 9 -77c-9 0 -9 0 -45 40l-27 120h-49c-7 0 -12 -17 -18 -76c-5 -46 -12 -78 -21 -82c-3 1 -4 2 -21 87v110zM236 956c-12 0 -15 7 -19 28c3 -1 7 -2 13 -2c8 1 9 4 9 10h115l27 -30
v-93l-27 -27h-17c-24 -16 -37 -27 -54 -44c0 -67 -22 -134 -47 -134v292zM1283 716c-4 75 -20 145 -60 262v3h22c8 13 10 14 13 14c11 0 12 -4 27 -89c4 -15 8 -16 20 -16c2 1 4 3 5 6v44c7 30 7 31 27 38c17 17 18 18 35 20c0 -13 -4 -25 -13 -36
c-28 -84 -43 -197 -43 -295h-6c-1 0 -5 4 -5 5c-4 5 -20 38 -22 44zM425 727c0 95 -4 193 -16 246v16l16 -5c4 4 5 6 5 8h33v-322c-11 0 -16 7 -19 25c-2 9 -9 22 -19 32zM556 709c12 0 14 2 44 56v148c-7 15 -7 19 -11 49h-33v-253zM1081 852c5 -3 27 -10 32 -10
c7 0 11 3 11 7c-5 26 -20 102 -21 124l-6 -6c-12 -78 -16 -107 -16 -115zM283 855c21 0 54 22 54 36v65h-54v-101zM873 878c0 -13 2 -15 14 -15c10 0 47 62 47 74l-6 8c-1 2 -2 6 -3 17h-47c-5 -71 -5 -71 -5 -84zM693 995c3 0 4 -2 4 -6c0 -3 -1 -5 -4 -5s-5 2 -5 5
c0 4 2 6 5 6zM1059 995c3 0 4 -2 4 -6c0 -3 -1 -5 -4 -5s-5 2 -5 5c0 4 2 6 5 6zM496 1000c3 0 4 -2 4 -6c0 -3 -1 -5 -4 -5s-5 2 -5 5c0 4 2 6 5 6z" />
    <glyph glyph-name="quotesingle" unicode="'" horiz-adv-x="184" 
d="M67 700c3 10 4 20 4 29c0 20 -4 28 -37 98c-6 13 -9 28 -9 45c0 59 17 82 62 82c43 0 72 -32 72 -79c0 -82 -29 -147 -82 -185z" />
    <glyph glyph-name="slash" unicode="/" horiz-adv-x="372" 
d="M25 20c82 443 137 709 189 945l26 27h97c6 0 10 -11 10 -22c0 -24 0 -25 -187 -870c-7 -30 -12 -53 -15 -70c-18 -35 -39 -45 -97 -45c-17 0 -22 21 -23 35z" />
    <glyph glyph-name="zero" unicode="0" 
 />
    <glyph glyph-name="one" unicode="1" 
 />
    <glyph glyph-name="two" unicode="2" 
 />
    <glyph glyph-name="three" unicode="3" 
 />
    <glyph glyph-name="four" unicode="4" 
 />
    <glyph glyph-name="five" unicode="5" 
 />
    <glyph glyph-name="six" unicode="6" 
 />
    <glyph glyph-name="seven" unicode="7" 
 />
    <glyph glyph-name="eight" unicode="8" 
 />
    <glyph glyph-name="nine" unicode="9" 
 />
    <glyph glyph-name="Z" unicode="Z" horiz-adv-x="669" 
d="M425 827l-350 -15c-17 0 -29 8 -36 24c0 125 5 148 32 148l228 -1h76c73 10 133 14 217 19c36 0 47 -5 47 -27c-17 -170 -37 -208 -116 -323c-294 -420 -314 -450 -332 -478l6 -8l87 -1c84 3 201 7 202 7c125 -3 125 -4 131 -25c0 -99 -7 -128 -32 -128
c-270 0 -289 0 -501 -18c-47 0 -54 3 -54 27c15 179 24 206 42 239c38 61 84 129 185 273c83 120 139 207 180 278z" />
    <glyph glyph-name="z" unicode="z" horiz-adv-x="444" 
d="M245 401l-189 9c-12 0 -18 3 -22 12v39c3 35 4 35 22 38c198 0 199 0 317 8c37 0 41 0 41 -12v-81l-4 -9c-26 -26 -107 -124 -249 -302l4 -4c237 -7 239 -7 239 -35c0 -58 -6 -59 -24 -62c-173 0 -193 0 -325 -8c-20 0 -25 2 -25 12v85c51 68 203 278 222 306z" />
    <glyph glyph-name="percent" unicode="%" horiz-adv-x="740" 
d="M30 843c0 85 63 153 144 153c130 0 152 -106 152 -166c0 -88 -58 -147 -151 -147c-89 0 -145 62 -145 160zM107 839c0 -66 21 -97 66 -97c50 0 68 21 75 93c0 60 -28 96 -76 96c-41 0 -60 -26 -65 -92zM414 161c0 85 63 153 144 153c130 0 152 -106 152 -166
c0 -88 -58 -147 -151 -147c-89 0 -145 62 -145 160zM491 157c0 -66 21 -97 66 -97c50 0 68 21 75 93c0 60 -28 96 -76 96c-41 0 -60 -26 -65 -92zM216 40c8 76 136 708 189 945l26 27h97c6 0 10 -11 10 -22c0 -24 0 -25 -187 -870c-7 -30 -12 -53 -15 -70
c-18 -35 -39 -45 -97 -45c-13 0 -21 12 -23 35z" />
    <glyph glyph-name="parenleft" unicode="(" horiz-adv-x="505" 
d="M31 499c0 62 7 174 43 245c10 16 13 20 16 35c4 21 16 41 47 78c1 0 5 8 5 10c10 11 10 12 11 12c90 90 102 102 239 129l8 1c47 0 48 0 57 -28c-2 -9 -6 -57 -8 -103c0 -12 -2 -12 -42 -12c-171 -6 -272 -129 -277 -339c0 -181 25 -261 103 -332c48 -40 54 -45 129 -59
l107 -17c9 -18 9 -19 11 -49c0 -36 -16 -77 -38 -77c-4 0 -9 1 -15 4c-154 4 -175 11 -273 109c0 4 -8 16 -10 18c-73 85 -113 224 -113 375z" />
    <glyph glyph-name="parenright" unicode=")" horiz-adv-x="505" 
d="M371 131l-15 -25c-101 -101 -118 -103 -273 -109c-6 -3 -11 -4 -16 -4c-22 0 -31 27 -37 80c0 22 2 28 11 46l107 17c7 0 83 15 108 40c101 93 119 133 124 351c0 216 -111 338 -305 338c-10 0 -14 3 -15 13v28c0 9 -6 70 -7 75c9 26 9 26 57 28l8 -1
c137 -27 149 -39 239 -129c1 0 1 -1 11 -12c0 -2 4 -10 5 -10c31 -37 31 -37 58 -106c31 -54 48 -146 48 -252c0 -147 -47 -307 -108 -368z" />
    <glyph glyph-name="onequarter" unicode="&#xbc;" horiz-adv-x="2038" 
d="M858 20c82 443 137 709 189 945l26 27h97c6 0 10 -11 10 -22c0 -24 0 -25 -187 -870c-7 -30 -12 -53 -15 -70c-18 -35 -39 -45 -97 -45c-17 0 -22 21 -23 35z" />
    <glyph glyph-name="onehalf" unicode="&#xbd;" horiz-adv-x="2038" 
d="M858 20c82 443 137 709 189 945l26 27h97c6 0 10 -11 10 -22c0 -24 0 -25 -187 -870c-7 -30 -12 -53 -15 -70c-18 -35 -39 -45 -97 -45c-17 0 -22 21 -23 35z" />
    <glyph glyph-name="threequarters" unicode="&#xbe;" horiz-adv-x="2038" 
d="M858 20c82 443 137 709 189 945l26 27h97c6 0 10 -11 10 -22c0 -24 0 -25 -187 -870c-7 -30 -12 -53 -15 -70c-18 -35 -39 -45 -97 -45c-17 0 -22 21 -23 35z" />
    <glyph glyph-name="question" unicode="?" horiz-adv-x="508" 
d="M173 274l-18 227c0 58 11 68 117 86c80 13 118 56 119 137c0 89 -40 135 -123 137c-51 0 -173 -38 -192 -52c-5 -3 -12 -5 -19 -5c-11 1 -16 10 -16 28c0 31 -3 50 -10 74c0 53 0 54 125 85c28 8 57 11 86 11c166 0 235 -75 239 -258c0 -96 -37 -177 -99 -214
c-131 -42 -131 -43 -132 -118c0 -4 1 -12 13 -117c0 -38 -15 -47 -35 -47c-35 3 -37 4 -44 5c-5 6 -11 16 -11 21zM145 90c0 54 37 102 79 102c41 0 78 -48 78 -100c0 -57 -33 -96 -83 -96c-41 0 -74 45 -74 94z" />
    <glyph glyph-name="less" unicode="&#x3c;" 
 />
    <glyph glyph-name="equal" unicode="=" horiz-adv-x="558" 
d="M48 449c248 0 365 -1 467 -3l13 -13l-1 -75c0 -7 -3 -8 -27 -13c-160 0 -174 0 -448 5c-16 5 -21 25 -21 79c0 9 6 16 17 20zM48 277c248 0 365 -1 467 -3l13 -13l-1 -75c0 -7 -3 -8 -27 -13c-160 0 -174 0 -448 5c-16 5 -21 25 -21 79c0 9 6 16 17 20z" />
    <glyph glyph-name="greater" unicode="&#x3e;" 
 />
    <glyph glyph-name="bracketleft" unicode="[" 
 />
    <glyph glyph-name="bracketright" unicode="]" 
 />
    <glyph glyph-name="asciicircum" unicode="^" 
 />
    <glyph glyph-name="braceleft" unicode="{" 
 />
    <glyph glyph-name="braceright" unicode="}" 
 />
    <glyph glyph-name="asciitilde" unicode="~" 
 />
    <glyph glyph-name="underscore" unicode="_" 
 />
    <glyph glyph-name="endash" unicode="&#x2013;" 
 />
    <glyph glyph-name="dagger" unicode="&#x2020;" horiz-adv-x="558" 
d="M232 34c-5 185 -6 303 -6 945l20 27h67c9 0 17 -23 19 -55c-11 -778 -12 -837 -12 -907c-12 -42 -20 -45 -57 -45c-14 0 -23 10 -31 35zM48 449c248 0 365 -1 467 -3l13 -13l-1 -75c0 -7 -3 -8 -27 -13c-160 0 -174 0 -448 5c-16 5 -21 25 -21 79c0 9 6 16 17 20z" />
    <glyph glyph-name="daggerdbl" unicode="&#x2021;" horiz-adv-x="558" 
d="M232 34c-5 185 -6 303 -6 945l20 27h67c9 0 17 -23 19 -55c-11 -778 -12 -837 -12 -907c-12 -42 -20 -45 -57 -45c-14 0 -23 10 -31 35zM48 449c248 0 365 -1 467 -3l13 -13l-1 -75c0 -7 -3 -8 -27 -13c-160 0 -174 0 -448 5c-16 5 -21 25 -21 79c0 9 6 16 17 20zM48 277
c248 0 365 -1 467 -3l13 -13l-1 -75c0 -7 -3 -8 -27 -13c-160 0 -174 0 -448 5c-16 5 -21 25 -21 79c0 9 6 16 17 20z" />
    <glyph glyph-name="multiply" unicode="&#xd7;" horiz-adv-x="445" 
d="M30 272c0 8 2 15 6 21l130 162v16l-103 156c-3 4 -4 8 -5 11v13c0 14 2 20 8 26l43 50c4 4 5 5 19 6h8c3 0 6 -1 7 -4l29 -56v-10l54 -102c3 -4 6 -6 10 -6c13 0 20 16 21 21l81 132c2 5 3 6 16 7c9 0 18 -3 25 -9l33 -35l2 -25l-126 -170l-4 -13c0 -8 10 -27 21 -38
l77 -88c2 -4 4 -8 7 -11c7 -6 21 -18 21 -30c0 -2 -3 -11 -5 -13l-53 -66c-2 -3 -4 -4 -6 -4h-15c-2 0 -4 1 -6 4l-84 140c-2 2 -9 3 -11 3s-8 -1 -10 -3l-136 -166c-1 -2 -3 -3 -6 -3c-14 0 -16 1 -19 6l-29 69v9z" />
    <glyph glyph-name="divide" unicode="&#xf7;" horiz-adv-x="551" 
d="M141 371l288 -4l13 -10l-1 -59c0 -6 -4 -7 -27 -10l-363 4c-17 6 -20 17 -20 62c0 15 13 17 110 17zM200 487c0 56 35 106 76 106c40 0 75 -51 75 -104c0 -59 -31 -99 -80 -99c-42 0 -71 52 -71 97zM200 165c0 56 35 106 76 106c40 0 75 -51 75 -104
c0 -59 -32 -99 -80 -99c-42 0 -71 52 -71 97z" />
    <glyph glyph-name="dieresis" unicode="&#xa8;" horiz-adv-x="424" 
d="M52 718c0 45 30 85 66 85c35 0 65 -41 65 -83c0 -47 -28 -80 -69 -80c-34 0 -54 23 -62 78zM224 718c0 45 30 85 66 85c35 0 65 -41 65 -83c0 -48 -26 -80 -69 -80c-33 0 -54 26 -62 78z" />
    <glyph glyph-name="adieresis" unicode="&#xe4;" horiz-adv-x="360" 
d="M230 31c-16 -1 -31 -5 -45 -12c-16 -9 -29 -12 -52 -12c-68 0 -106 44 -107 121c0 99 61 149 181 149h32c9 10 10 11 11 25c0 78 -36 96 -81 96c-21 0 -26 -2 -90 -29c-9 -3 -18 -5 -27 -5c-15 0 -18 6 -22 35c0 69 51 101 160 103c80 0 139 -57 139 -135
c1 -20 5 -174 5 -223c0 -147 -7 -163 -47 -165c-25 0 -26 0 -42 44c-2 5 -7 8 -15 8zM99 140c1 -33 22 -50 56 -50c58 0 88 23 88 68c0 20 -26 46 -47 46c-50 0 -97 -28 -97 -64zM30 718c0 45 30 85 66 85c35 0 65 -41 65 -83c0 -47 -28 -80 -69 -80c-34 0 -54 23 -62 78z
M202 718c0 45 30 85 66 85c35 0 65 -41 65 -83c0 -48 -26 -80 -69 -80c-33 0 -54 26 -62 78z" />
    <glyph glyph-name="edieresis" unicode="&#xeb;" horiz-adv-x="393" 
d="M25 261c0 148 67 239 176 239c101 0 128 -40 167 -226c0 -41 -5 -44 -213 -64c-13 -2 -20 -12 -20 -30c0 -55 59 -81 104 -81c13 0 24 2 34 7c11 5 22 7 33 7c16 0 24 -14 30 -63c0 -33 -32 -49 -107 -54c-129 0 -204 106 -204 265zM122 318c0 -17 9 -25 27 -25
c26 0 36 1 109 7c16 6 16 6 20 34c0 45 -29 77 -71 77c-58 0 -85 -53 -85 -93zM46 718c0 45 30 85 66 85c35 0 65 -41 65 -83c0 -47 -28 -80 -69 -80c-34 0 -54 23 -62 78zM218 718c0 45 30 85 66 85c35 0 65 -41 65 -83c0 -48 -26 -80 -69 -80c-33 0 -54 26 -62 78z" />
    <glyph glyph-name="Edieresis" unicode="&#xcb;" horiz-adv-x="463" 
d="M27 923c5 16 19 27 37 30l306 43c30 0 43 -8 43 -33c0 -96 -6 -126 -25 -126l-208 -12c-13 0 -36 -25 -36 -36v-172c0 -16 25 -37 42 -37h160c19 0 30 -13 30 -32c0 -71 -15 -115 -37 -115h-165c-13 0 -30 -21 -30 -36v-172c0 -34 24 -41 110 -48c52 -9 92 -13 158 -19
c18 -6 26 -18 26 -40c0 -29 -5 -87 -37 -113c-142 0 -287 24 -323 38c-51 20 -51 21 -51 880zM80 1200c0 45 30 85 66 85c35 0 65 -41 65 -83c0 -47 -28 -80 -69 -80c-34 0 -54 23 -62 78zM252 1200c0 45 30 85 66 85c35 0 65 -41 65 -83c0 -48 -26 -80 -69 -80
c-33 0 -54 26 -62 78z" />
    <glyph glyph-name="Adieresis" unicode="&#xc4;" horiz-adv-x="605" 
d="M355 257c-145 0 -157 -17 -175 -154c-8 -73 -29 -109 -66 -109c-73 0 -88 10 -88 54l299 933c5 18 6 18 14 18c10 0 16 -8 25 -35l215 -925c0 -45 -19 -54 -95 -62c-17 0 -24 4 -27 18l-47 236c-4 21 -9 22 -55 26zM261 379l20 -9c64 0 102 13 102 34
c0 8 -34 172 -44 205c-1 5 -5 7 -13 7c-12 0 -14 -2 -19 -19l-46 -175v-43zM151 1200c0 45 30 85 66 85c35 0 65 -41 65 -83c0 -47 -28 -80 -69 -80c-34 0 -54 23 -62 78zM323 1200c0 45 30 85 66 85c35 0 65 -41 65 -83c0 -48 -26 -80 -69 -80c-33 0 -54 26 -62 78z" />
    <glyph glyph-name="odieresis" unicode="&#xf6;" horiz-adv-x="393" 
d="M25 259c0 138 73 250 167 250c151 0 176 -176 176 -273c0 -143 -69 -240 -175 -240c-102 0 -168 102 -168 263zM114 252c0 -107 24 -159 77 -159c63 0 80 42 87 152c0 53 -12 158 -89 158c-47 0 -70 -46 -75 -151zM46 718c0 45 30 85 66 85c35 0 65 -41 65 -83
c0 -47 -28 -80 -69 -80c-34 0 -54 23 -62 78zM218 718c0 45 30 85 66 85c35 0 65 -41 65 -83c0 -48 -26 -80 -69 -80c-33 0 -54 26 -62 78z" />
    <glyph glyph-name="Odieresis" unicode="&#xd6;" horiz-adv-x="718" 
d="M25 511c0 268 143 487 325 487c287 0 343 -325 343 -531c0 -279 -136 -468 -341 -468c-199 0 -327 202 -327 512zM179 503c0 -233 57 -352 170 -352c132 0 184 98 191 335c0 219 -73 348 -196 348c-104 0 -157 -107 -165 -331zM207 1200c0 45 30 85 66 85
c35 0 65 -41 65 -83c0 -47 -28 -80 -69 -80c-34 0 -54 23 -62 78zM379 1200c0 45 30 85 66 85c35 0 65 -41 65 -83c0 -48 -26 -80 -69 -80c-33 0 -54 26 -62 78z" />
    <glyph glyph-name="udieresis" unicode="&#xfc;" horiz-adv-x="386" 
d="M25 373c0 95 7 107 77 114c11 0 25 -14 26 -26c-6 -32 -6 -38 -10 -96c0 -46 9 -193 12 -207c2 -21 27 -39 59 -44c54 0 63 50 74 282c0 25 -1 49 -4 73l8 19c39 12 42 13 51 13c36 0 37 -1 43 -51c-20 -286 -26 -353 -89 -416c-20 -20 -42 -28 -78 -29
c-29 0 -53 6 -72 19c-68 49 -87 123 -97 349zM43 718c0 45 30 85 66 85c35 0 65 -41 65 -83c0 -47 -28 -80 -69 -80c-34 0 -54 23 -62 78zM215 718c0 45 30 85 66 85c35 0 65 -41 65 -83c0 -48 -26 -80 -69 -80c-33 0 -54 26 -62 78z" />
    <glyph glyph-name="Udieresis" unicode="&#xdc;" horiz-adv-x="606" 
d="M25 735c0 182 18 195 53 207c28 12 57 20 71 21c19 0 44 -28 46 -53c-12 -90 -14 -132 -15 -222c0 -62 15 -361 19 -382c5 -43 56 -88 99 -88c49 0 93 72 97 156c21 313 22 334 23 433c0 41 -2 81 -6 119l14 39c32 14 71 26 83 26c62 0 64 -12 72 -97
c0 -107 -26 -489 -51 -609c-42 -198 -112 -281 -224 -285c-195 0 -264 189 -281 735zM151 1200c0 45 30 85 66 85c35 0 65 -41 65 -83c0 -47 -28 -80 -69 -80c-34 0 -54 23 -62 78zM323 1200c0 45 30 85 66 85c35 0 65 -41 65 -83c0 -48 -26 -80 -69 -80
c-33 0 -54 26 -62 78z" />
    <glyph glyph-name="ydieresis" unicode="&#xff;" horiz-adv-x="443" 
d="M86 -115c54 -47 70 -50 112 -55c75 -3 143 83 143 181c0 9 0 18 -3 35l-6 5c-21 0 -27 0 -68 -22c-41 -19 -43 -19 -73 -21c-98 0 -166 107 -166 197l33 275c2 17 7 21 36 23c42 0 59 -8 59 -30l-28 -251c14 -83 29 -103 89 -113c81 0 108 33 111 124c0 11 -2 62 -13 263
c10 17 28 22 80 25c4 0 6 -2 7 -7l5 -44l13 -531c0 -114 -71 -201 -198 -208c-78 0 -157 36 -192 89c0 37 33 65 59 65zM70 718c0 45 30 85 66 85c35 0 65 -41 65 -83c0 -47 -28 -80 -69 -80c-34 0 -54 23 -62 78zM242 718c0 45 30 85 66 85c35 0 65 -41 65 -83
c0 -48 -26 -80 -69 -80c-33 0 -54 26 -62 78z" />
    <glyph glyph-name="Ydieresis" unicode="&#x178;" horiz-adv-x="644" 
d="M276 357l1 114c0 3 -10 23 -22 47l-75 131c-10 30 -18 41 -89 139c0 1 -3 5 -4 6c0 9 -21 41 -45 68c-12 15 -17 27 -17 39c0 32 46 50 137 50c5 -4 8 -8 11 -13l96 -204l40 -109l19 -9c22 0 23 2 71 161c4 15 8 24 10 29c9 9 14 17 16 26c3 9 8 19 15 28l50 113
c8 15 19 22 36 22c16 0 17 0 54 -26c39 -22 39 -22 39 -49c0 -1 -1 -4 -3 -7c-64 -107 -184 -326 -222 -417c0 -108 2 -170 7 -247c5 -69 8 -138 8 -207c0 -36 -2 -45 -118 -61c-23 0 -24 5 -28 43c13 312 13 312 13 333zM170 1200c0 45 30 85 66 85c35 0 65 -41 65 -83
c0 -47 -28 -80 -69 -80c-34 0 -54 23 -62 78zM342 1200c0 45 30 85 66 85c35 0 65 -41 65 -83c0 -48 -26 -80 -69 -80c-33 0 -54 26 -62 78z" />
    <glyph glyph-name="degree" unicode="&#xb0;" horiz-adv-x="356" 
d="M30 833c0 85 63 153 144 153c130 0 152 -106 152 -166c0 -88 -58 -147 -151 -147c-89 0 -145 62 -145 160zM107 829c0 -66 21 -97 66 -97c50 0 68 21 75 93c0 60 -28 96 -76 96c-41 0 -60 -26 -65 -92z" />
    <glyph glyph-name="guilsinglright" unicode="&#x203a;" 
 />
    <glyph glyph-name="guillemotright" unicode="&#xbb;" 
 />
    <glyph glyph-name="Euro" unicode="&#x20ac;" horiz-adv-x="1533" 
d="M242 173l-2 2c-51 26 -175 170 -181 282c0 332 260 537 700 552c211 0 319 -23 465 -103c213 -116 279 -232 279 -453c-9 -216 -333 -449 -718 -449c-135 0 -212 13 -344 57l-7 1c-10 0 -11 0 -48 -16l-351 -160h-5c154 115 212 197 212 287zM271 173
c-7 -51 -43 -132 -69 -158c-6 -5 -9 -12 -9 -19h17c196 82 215 89 227 89c139 -44 188 -50 340 -55c417 0 685 182 703 477c0 255 -282 468 -602 477h-191c-81 0 -255 -47 -364 -107c-127 -71 -234 -212 -237 -311c0 -161 3 -182 79 -296c57 -57 101 -97 106 -97zM447 472
c16 3 17 4 19 5l16 1v-245h55c3 0 6 -12 9 -37c0 -8 -2 -9 -5 -9h-94v285zM567 453c1 10 7 13 31 16h12v-177c0 -21 14 -41 31 -41c30 0 40 51 40 217c5 6 5 6 24 9c17 0 22 -6 22 -26c0 -188 -25 -265 -83 -265c-47 0 -70 45 -77 148v119zM750 346c0 75 47 136 114 136
c20 0 24 -6 24 -35c-1 -2 -2 -6 -5 -15c-56 0 -92 -32 -92 -98c0 -77 23 -92 73 -100c15 -1 24 -4 24 -8v-35l-5 -4c-106 0 -125 37 -133 159zM913 477c4 4 5 4 36 6v-121l14 -3c8 3 14 12 29 59c17 45 20 50 30 50c1 -2 19 -12 26 -15v-6c-14 -30 -56 -121 -56 -135
c33 -47 58 -84 60 -96c0 -10 -10 -30 -16 -30c-8 0 -12 5 -58 74c-7 11 -14 18 -20 23l-7 -1v-85c0 -8 -8 -10 -28 -10h-5c-4 22 -5 95 -5 290zM1072 211c0 23 5 30 21 30c13 0 14 -2 19 -30c0 -14 -7 -25 -19 -25c-14 0 -21 12 -21 25zM1102 477c0 -26 1 -77 4 -201
c0 -7 -1 -10 -4 -10h-24v211h24zM488 839c12 0 12 0 15 -17c0 -13 -3 -21 -8 -24c-47 -27 -60 -56 -64 -114c0 -53 16 -92 37 -92c3 0 9 1 26 7v83c0 3 35 10 47 10c1 0 5 -4 5 -5v-33l-23 -17v-86c-2 0 -3 0 -12 -4c-75 0 -98 16 -114 90v100c0 39 47 102 91 102zM570 694
c0 66 14 101 56 138c9 9 12 9 38 12c64 0 97 -52 97 -152c0 -96 -33 -145 -97 -145s-86 46 -94 147zM786 694c0 57 7 97 56 138c9 9 11 9 38 12c64 0 98 -52 98 -152c0 -96 -33 -145 -98 -145c-64 0 -86 46 -94 147zM1027 598v109c0 89 -2 90 -26 95v36l17 5l9 1
c85 0 139 -57 139 -147c0 -99 -51 -150 -149 -150c-3 3 -4 6 -4 9c0 21 0 32 14 42zM664 793c-23 0 -42 -19 -47 -51v-100c0 -19 19 -50 50 -50c37 0 50 19 55 95c0 71 -19 106 -58 106zM877 793c-25 0 -44 -29 -44 -51v-100c0 -22 22 -50 50 -50c37 0 49 23 54 95
c0 68 -22 106 -60 106zM1064 597c41 0 57 26 65 94c0 66 -21 97 -65 97v-191z" />
    <glyph glyph-name="cent" unicode="&#xa2;" horiz-adv-x="1541" 
d="M243 170c-6 4 -6 4 -7 5c-105 87 -172 193 -174 281c0 338 255 540 702 555c205 0 323 -25 466 -104c210 -114 281 -239 281 -455c-9 -227 -341 -450 -722 -450c-139 0 -218 14 -345 56l-7 1c-14 0 -16 -1 -49 -16l-353 -161h-5c146 110 213 200 213 288zM272 170
c-7 -51 -43 -132 -69 -158c-6 -5 -9 -11 -9 -18c25 0 58 12 232 87l13 2c119 -41 191 -50 342 -55c165 0 217 6 362 60c212 83 334 222 343 402c0 145 -25 203 -157 329c-86 83 -299 162 -448 166h-192c-144 0 -381 -91 -469 -187l-60 -60c0 -1 -2 -6 -7 -13
c-47 -67 -67 -115 -68 -159c0 -164 8 -255 185 -394c1 -1 1 -2 2 -2zM447 565c1 45 3 92 6 142c12 4 25 7 40 7h2c7 0 8 -3 8 -27c0 -97 0 -106 -5 -150c-4 -42 -5 -76 -5 -136c3 -6 5 -8 6 -13h74c3 -1 4 -4 4 -7c6 -6 7 -13 8 -39v-16l-6 -5h-120l-11 10zM613 523
c0 111 54 196 133 196c85 0 130 -75 130 -209c0 -82 -18 -128 -66 -169c-15 -15 -19 -15 -67 -21c-78 0 -130 81 -130 203zM901 565c1 45 3 92 6 142c11 5 24 7 39 7c0 -1 0 -1 1 -1c6 0 7 0 10 -38c0 -86 0 -94 -5 -138c-4 -42 -6 -74 -6 -126c2 -16 3 -20 6 -23h76
c1 -1 10 -20 10 -26v-36l-6 -5h-120l-9 10zM1072 370c2 12 2 13 16 27l6 1c22 0 29 -8 29 -37c0 -30 -7 -41 -25 -41c-21 0 -26 11 -26 50zM675 517c0 -115 20 -138 86 -138c22 0 54 48 54 77v110c0 43 -35 87 -71 87c-48 0 -67 -36 -69 -136zM1093 714c10 0 15 -2 19 -7
c3 -22 5 -125 5 -276c0 -5 -2 -6 -10 -7l-23 1c-3 0 -5 3 -5 6v276c0 5 2 7 6 7h8z" />
    <glyph glyph-name="currency" unicode="&#xa4;" horiz-adv-x="1536" 
d="M241 170c-27 14 -122 115 -163 207c-11 27 -18 53 -19 79c0 335 257 538 702 553c296 0 482 -71 649 -246c0 -2 3 -5 7 -10c71 -71 89 -165 89 -302c-9 -226 -339 -448 -719 -448c-149 0 -159 3 -345 56l-7 1c-14 0 -26 -4 -48 -16l-353 -161h-4c145 108 211 199 211 287
zM272 170c-6 -47 -45 -132 -70 -157c-6 -5 -9 -11 -9 -18c22 0 22 0 163 59c66 28 71 30 81 30c140 -48 212 -52 341 -56c272 0 468 73 607 226l16 16c0 3 9 16 16 20c57 85 60 103 65 201c0 122 -10 191 -157 326c-86 83 -302 163 -446 167l-201 -1
c-297 -50 -353 -77 -518 -247c-72 -108 -76 -122 -76 -228c0 -97 9 -124 76 -233c19 -24 105 -105 112 -105zM300 536h50l14 9v135h32v-288c0 -5 -2 -7 -7 -8h-18c-5 8 -7 11 -7 12v90h-51l-11 -10v-80c0 -13 -6 -17 -26 -17c-3 1 -4 2 -4 5v288c2 2 5 2 28 6v-142zM481 392
c-13 -3 -24 -4 -34 -4c-22 2 -26 18 -26 35c0 31 15 36 60 44c2 8 2 10 2 11c0 15 -8 22 -23 22l-40 -6c0 29 11 38 44 38c24 0 43 -16 43 -36v-100c0 -10 -7 -17 -16 -17c-2 1 -3 2 -10 13zM648 536h55l12 9v135h33v-288c0 -6 -6 -8 -20 -8c-10 6 -13 11 -13 12v88l-39 1
c-12 0 -14 -1 -22 -9v-80c0 -9 -10 -17 -20 -17s-11 2 -11 13v280c0 3 1 4 25 6v-142zM834 392c-13 -3 -25 -4 -34 -4c-17 1 -28 15 -28 35c0 31 11 35 62 44c0 26 -2 33 -23 33c-33 -6 -39 -6 -40 -6c0 28 12 38 45 38c32 0 37 -15 43 -61v-75c-8 -16 -9 -17 -16 -17
c-6 6 -7 7 -9 13zM996 676v-140h53l13 9v135h32v-288c0 -5 -2 -7 -7 -8h-17c-6 6 -8 11 -8 12v90h-53l-11 -10v-80c0 -13 -6 -17 -24 -17c-3 1 -5 2 -5 5v292h27zM1180 392c-11 -3 -25 -4 -29 -4c-13 0 -29 13 -33 17v36c25 20 28 21 62 26c0 26 -2 33 -22 33
c-1 0 -7 0 -41 -6c0 28 12 38 45 38c22 0 43 -17 43 -36v-100c0 -3 -3 -13 -5 -17c-12 0 -16 3 -20 13zM1229 415c0 17 8 26 21 26c10 0 20 -15 20 -31c0 -13 -8 -26 -20 -26c-16 0 -17 3 -21 31zM1289 413c0 20 8 28 23 28c12 0 18 -17 18 -31c0 -11 -10 -26 -18 -26
c-16 0 -23 9 -23 29zM1355 413c0 19 7 28 22 28c11 0 20 -17 20 -31c0 -10 -9 -26 -20 -26c-15 0 -22 9 -22 29zM440 426c0 -8 1 -9 20 -10c14 0 23 2 23 12l-6 13c-32 0 -37 -2 -37 -15zM793 426c0 -8 0 -9 18 -10c18 0 24 4 24 15c0 8 -2 9 -19 10c-19 0 -23 -4 -23 -15z
M1140 426c0 -8 0 -9 18 -10c18 0 22 4 22 15c0 8 -1 9 -18 10c-18 0 -22 -4 -22 -15z" />
    <glyph glyph-name="section" unicode="&#xa7;" horiz-adv-x="1535" 
d="M240 171l-5 4c-112 96 -174 198 -176 279v55c0 285 307 486 702 499c200 0 322 -25 466 -104c213 -117 278 -231 278 -455c-10 -231 -350 -447 -719 -447c-156 0 -179 7 -344 57l-7 1c-14 0 -20 -2 -48 -18l-353 -159h-4c152 114 210 195 210 288zM272 171
c-8 -48 -50 -141 -71 -158c-6 -5 -9 -11 -9 -18h18c61 22 180 71 206 85c6 3 11 4 21 4c139 -47 196 -52 339 -57c414 0 705 197 705 479c0 192 -135 348 -371 427c-94 31 -146 48 -232 50h-191c-274 0 -587 -215 -603 -418c0 -205 23 -249 174 -386zM238 333
c0 40 -8 234 -13 288h-49c-3 0 -6 7 -8 18v10c0 28 0 29 149 50l25 -3v-53c0 -8 -11 -12 -38 -15c-15 -2 -23 -4 -28 -9c0 -85 1 -121 5 -292l-36 1c-2 0 -7 4 -7 5zM453 483v23l-71 107v5c0 41 2 50 16 50c5 -2 57 -65 89 -105c21 0 27 8 41 63c14 49 25 63 45 63
c22 0 25 -28 25 -46c-10 -11 -79 -121 -81 -129v-19c0 -1 3 -5 8 -11c68 -76 80 -91 80 -99c0 -25 -8 -31 -43 -31c-47 72 -62 91 -72 91c-6 0 -78 -88 -102 -117c-5 1 -19 14 -19 17c-1 1 -2 4 -3 8c0 26 0 26 87 130zM700 333c0 77 -6 248 -11 288h-50l-4 12l-1 20
c0 25 0 25 147 46l25 -3c0 -6 1 -13 3 -28c0 -34 -4 -41 -48 -41c-3 -1 -7 -2 -20 -8c0 -116 0 -117 6 -292h-18c-25 2 -29 3 -29 6zM969 680c50 -126 65 -159 73 -159c9 0 18 21 73 168c14 -236 14 -236 14 -356c-5 -3 -11 -5 -18 -6h-17v179c-17 -4 -44 -70 -45 -75l-1 -1
c-12 0 -13 1 -38 65c-4 9 -9 14 -14 16l-1 3c-1 -3 -1 -3 -2 -3l-13 -178c0 -4 -5 -5 -23 -6h-17c0 65 19 327 22 347zM1288 643c-17 -3 -56 -10 -80 -10l-13 -14v-62c2 -6 4 -10 6 -18h75v-53h-75l-6 -15v-31c0 -46 2 -47 45 -52c31 -3 46 -6 61 -13c0 -37 -3 -47 -29 -47
c-68 0 -112 13 -112 32v314c112 22 114 22 128 22v-53zM1330 361c0 26 7 35 28 35c18 0 19 -2 24 -35c0 -22 -8 -33 -24 -33c-18 0 -28 11 -28 33zM1369 689h-1l1 -45c5 -78 8 -156 8 -208c0 -10 -13 -13 -40 -13v266h32z" />
    <glyph glyph-name="circumflex" unicode="&#x2c6;" 
 />
    <glyph glyph-name="Scaron" unicode="&#x160;" horiz-adv-x="499" 
d="M42 33v133c0 6 5 9 12 9c19 0 38 -3 56 -9c19 -5 38 -8 57 -8c85 0 141 40 141 108c0 69 -28 86 -159 166c-85 57 -124 138 -124 254c0 187 150 311 374 311h33l16 -17c0 -96 0 -113 -7 -166c-178 0 -267 -47 -267 -141c0 -65 36 -108 150 -181
c103 -63 150 -135 150 -226c0 -155 -131 -267 -312 -267c-88 0 -120 10 -120 34z" />
    <glyph glyph-name="guilsinglleft" unicode="&#x2039;" 
 />
    <glyph glyph-name="scaron" unicode="&#x161;" horiz-adv-x="330" 
d="M56 112c48 -22 58 -25 85 -25c48 0 74 17 74 49c0 30 -20 48 -89 81c-60 33 -88 79 -88 146c0 103 70 157 149 157c52 0 95 -20 95 -45c0 -22 -16 -59 -25 -59h-98c-17 0 -43 -35 -43 -54c0 -20 8 -42 25 -55c114 -46 164 -97 164 -171c0 -87 -64 -140 -170 -140
c-82 9 -109 19 -109 45c0 36 11 63 30 71z" />
    <glyph glyph-name="Zcaron" unicode="&#x17d;" horiz-adv-x="669" 
d="M425 827l-350 -15c-17 0 -29 8 -36 24c0 125 5 148 32 148l228 -1h76c73 10 133 14 217 19c36 0 47 -5 47 -27c-17 -170 -37 -208 -116 -323c-294 -420 -314 -450 -332 -478l6 -8l87 -1c84 3 201 7 202 7c125 -3 125 -4 131 -25c0 -99 -7 -128 -32 -128
c-270 0 -289 0 -501 -18c-47 0 -54 3 -54 27c15 179 24 206 42 239c38 61 84 129 185 273c83 120 139 207 180 278z" />
    <glyph glyph-name="zcaron" unicode="&#x17e;" horiz-adv-x="444" 
d="M245 401l-189 9c-12 0 -18 3 -22 12v39c3 35 4 35 22 38c198 0 199 0 317 8c37 0 41 0 41 -12v-81l-4 -9c-26 -26 -107 -124 -249 -302l4 -4c237 -7 239 -7 239 -35c0 -58 -6 -59 -24 -62c-173 0 -193 0 -325 -8c-20 0 -25 2 -25 12v85c51 68 203 278 222 306z" />
    <glyph glyph-name="perthousand" unicode="&#x2030;" horiz-adv-x="1071" 
d="M30 851c0 85 63 153 144 153c130 0 152 -106 152 -166c0 -88 -58 -147 -151 -147c-89 0 -145 62 -145 160zM107 847c0 -66 21 -97 66 -97c50 0 68 21 75 93c0 60 -28 96 -76 96c-41 0 -60 -26 -65 -92zM414 186c0 85 63 153 144 153c130 0 152 -106 152 -166
c0 -88 -58 -147 -151 -147c-89 0 -145 62 -145 160zM491 182c0 -66 21 -97 66 -97c50 0 68 21 75 93c0 60 -28 96 -76 96c-41 0 -60 -26 -65 -92zM745 186c0 85 63 153 144 153c130 0 152 -106 152 -166c0 -88 -58 -147 -151 -147c-89 0 -145 62 -145 160zM822 182
c0 -66 21 -97 66 -97c50 0 68 21 75 93c0 60 -28 96 -76 96c-41 0 -60 -26 -65 -92zM216 34c8 76 136 708 189 945l26 27h97c6 0 10 -11 10 -22c0 -24 0 -25 -187 -870c-7 -30 -12 -53 -15 -70c-18 -35 -39 -45 -97 -45c-13 0 -21 12 -23 35z" />
    <glyph glyph-name="florin" unicode="&#x192;" horiz-adv-x="1541" 
d="M241 167l-5 6c-105 87 -173 195 -175 280v107c2 66 71 188 150 257c130 116 327 192 553 192c211 0 322 -23 468 -103c216 -118 279 -245 279 -457c-9 -227 -341 -450 -722 -450c-138 0 -213 13 -346 57l-7 1c-11 0 -11 0 -48 -17l-354 -161h-4c153 115 211 197 211 288z
M272 167c-6 -46 -47 -137 -70 -158c-6 -5 -9 -11 -9 -18h18c196 79 225 90 227 90c122 -42 185 -51 342 -56c183 0 205 7 363 60c112 43 171 84 263 182c0 1 2 4 6 9c51 59 70 111 75 213c0 138 -20 198 -158 328c-86 83 -303 163 -448 167c-384 0 -508 -36 -721 -249
c-74 -119 -74 -120 -74 -230c0 -125 30 -182 108 -267c17 -17 75 -71 78 -71zM899 413c-47 0 -59 -14 -66 -71c-2 -17 -8 -24 -20 -24c-22 0 -28 4 -28 18l111 347l6 -9l80 -346c0 -4 -18 -16 -25 -16h-2c-12 0 -13 0 -28 71c-7 25 -9 30 -28 30zM263 666c0 5 22 10 47 10
c0 -117 -2 -180 -8 -252v-36l5 -7h65c5 -5 12 -22 12 -39l-2 -14l-5 -5h-114v343zM433 671c30 -60 60 -143 60 -147c9 -16 9 -16 17 -16c5 0 19 30 56 134c11 29 12 31 13 32c7 -53 14 -262 16 -329c0 -18 -3 -19 -36 -23v172l-5 6c-41 -72 -44 -76 -45 -76c-2 0 -2 0 -6 4
c-32 74 -34 78 -40 82l-5 -5l-10 -182h-41c0 41 21 343 22 343zM620 671l10 9h110l21 -6v-33c0 -2 -3 -9 -5 -11l-5 -5h-72c-7 0 -13 -7 -15 -15v-76c3 -24 5 -24 28 -24l33 3l6 -3v-41c0 -3 -3 -6 -10 -7c-44 -5 -51 -7 -51 -13v-115c0 -2 -5 -6 -6 -6c-2 -2 -23 -5 -34 -5
c-9 9 -10 84 -10 348zM1002 505c0 101 49 177 116 177c75 0 122 -72 122 -188c0 -102 -50 -172 -122 -172s-116 70 -116 183zM1264 361c0 19 9 34 30 34c14 0 22 -14 22 -32c0 -22 -5 -41 -27 -41c-14 0 -25 14 -25 39zM1116 621c-38 0 -52 -32 -58 -72v-100
c0 -27 23 -69 41 -71c65 0 80 13 85 120c0 82 -23 123 -68 123zM1274 680c0 1 1 2 4 2c31 0 31 0 31 -243c0 -3 -3 -13 -5 -15h-30c-4 0 -6 3 -6 4v213zM872 459c0 -5 3 -7 9 -7c21 0 31 4 31 16c0 18 -13 74 -20 76c-15 -11 -20 -33 -20 -85z" />
    <glyph glyph-name="guillemotleft" unicode="&#xab;" 
 />
    <glyph glyph-name="twosuperior" unicode="&#xb2;" 
 />
    <glyph glyph-name="threesuperior" unicode="&#xb3;" 
 />
    <glyph glyph-name="acute" unicode="&#xb4;" 
 />
    <glyph glyph-name="cedilla" unicode="&#xb8;" 
 />
    <glyph glyph-name="dollar" unicode="$" horiz-adv-x="1551" 
d="M260 165c-9 0 -101 96 -133 150c-35 58 -52 119 -52 186c0 285 319 506 726 506c398 0 720 -224 720 -503c0 -281 -318 -504 -725 -504c-115 0 -283 30 -341 59c-24 0 -172 -69 -425 -188c175 142 193 170 230 273v21zM215 0l7 -7c28 14 212 90 231 92
c114 -38 208 -52 348 -56c385 0 673 182 690 461c0 236 -176 407 -524 477c-47 8 -59 9 -178 10c-385 0 -684 -197 -684 -471c0 -137 45 -217 185 -332c0 -36 -29 -103 -75 -174zM479 579c0 83 48 134 127 134c32 0 79 -15 91 -29c5 -5 12 -8 19 -8h7c20 20 124 61 167 61
c25 0 89 -30 114 -54c32 -29 48 -65 48 -110c0 -95 -83 -196 -268 -319c-29 -19 -32 -20 -41 -20c-155 116 -264 257 -264 345zM280 354c8 10 12 15 16 19c1 1 1 5 4 36v214c-17 0 -25 5 -26 16l1 29c14 9 15 10 59 11c11 -2 23 -3 25 -3l12 -8c0 -21 0 -22 -20 -33
c-2 -2 -7 -6 -7 -8v-249c0 -5 0 -5 21 -10c3 -1 4 -2 4 -5v-34c0 -3 -22 -10 -35 -11l-49 1c-3 3 -5 7 -6 11zM1137 643c7 15 23 25 40 25c7 0 11 -2 14 -10c0 -227 0 -255 41 -255c30 0 30 0 44 265c12 7 24 11 32 11c13 0 21 -5 23 -16c0 -251 -25 -340 -96 -340
c-62 0 -90 47 -98 181v139zM563 676c45 0 51 0 81 -8h2c5 0 5 0 8 12c0 16 -9 19 -39 22h-16c-33 0 -40 -2 -45 -15zM768 682c3 -1 5 -4 6 -9c1 -4 4 -6 8 -6c19 0 38 3 55 8c18 5 37 8 56 8c13 0 27 -3 41 -8c16 -5 27 -7 43 -7c2 0 5 4 15 14c-13 22 -40 31 -117 36
c-44 0 -79 -12 -107 -36z" />
    <glyph glyph-name="sterling" unicode="&#xa3;" horiz-adv-x="1557" 
d="M260 166l-4 6c-131 117 -181 209 -181 332c0 285 321 509 730 509c400 0 722 -225 722 -506c0 -283 -321 -506 -727 -506c-68 0 -211 8 -343 59c-20 0 -139 -53 -427 -189c1 1 4 4 7 8c148 111 223 207 223 287zM215 1l11 -5c52 22 213 89 228 91
c135 -45 197 -53 351 -57c391 0 693 202 693 464c0 242 -179 405 -527 479c-47 8 -59 9 -178 10h-82c-314 -13 -599 -244 -605 -421c0 -194 26 -255 185 -385c0 -41 -22 -97 -76 -176zM307 702l9 9h47c-6 -202 -7 -241 -7 -315c20 -6 30 -6 80 -10l5 -5c5 -37 5 -41 5 -55
c0 -3 -2 -4 -5 -4h-134v380zM465 522c0 117 51 196 132 196c112 0 134 -130 134 -212c0 -97 -48 -176 -108 -185h-37c-72 0 -121 82 -121 201zM757 647v4c0 30 6 31 64 31c38 -89 60 -144 62 -158c2 -9 7 -14 14 -17l10 9c11 49 61 196 84 196c11 0 11 0 41 -30l-2 -15
c-2 -5 -67 -168 -123 -335l-5 -10c-9 5 -9 6 -56 119c-33 87 -54 136 -89 206zM1067 702c0 3 45 9 120 16c1 0 5 0 14 -2l6 -5v-48c-10 -8 -27 -11 -60 -11c-25 -4 -34 -5 -35 -5l-4 -5v-80l9 -9h77l-2 -41c0 -5 -3 -17 -5 -17h-79v-94c0 -1 1 -2 4 -5c5 0 20 -4 24 -6
l76 -9l5 -5c0 -55 0 -55 -70 -55c-85 11 -85 11 -90 60v310zM1241 360c0 24 12 38 34 38c19 0 27 -11 27 -37s-10 -41 -29 -41c-20 0 -32 16 -32 40zM531 457c12 -53 31 -76 62 -76c49 0 67 31 74 126c0 97 -26 145 -77 145c-31 0 -55 -34 -59 -81v-114zM1248 676l5 35h28
c3 0 11 -6 11 -9v-276h-44v250z" />
    <glyph glyph-name="asterisk" unicode="*" horiz-adv-x="990" 
d="M335 973c45 24 69 33 111 33c156 0 261 -56 393 -212l6 -8c37 -53 49 -74 49 -81l12 -22c40 -80 44 -114 54 -216c0 -155 -82 -287 -222 -381l-4 -2c-81 -48 -81 -49 -248 -85l-9 -1c-278 0 -432 136 -447 395c0 260 152 529 305 580zM460 12l13 -1l6 2c0 1 0 1 -1 2
c42 5 44 5 63 15c34 4 91 17 94 20l4 4l23 6c5 5 7 6 7 8l19 5c3 7 4 8 20 13l1 4l21 9l9 9c2 0 11 2 14 9l36 27l26 25l41 44c0 3 1 8 9 16c4 6 18 27 26 38c0 5 3 11 9 19c18 38 18 39 18 51c0 6 3 11 8 14c5 9 6 18 6 37c0 6 2 12 7 17l4 25v74c0 5 -6 30 -8 33l-4 32
l-11 33l-6 26c0 1 -1 2 -4 3l-8 26c-5 0 -5 0 -7 16l-14 23l-4 10l-17 24l-5 13c-5 5 -7 7 -7 8l-9 18l-19 23c-7 7 -7 7 -17 25l-22 19c0 3 -2 6 -6 7c-3 2 -6 5 -7 10l-3 -1c-1 2 -11 15 -46 44c-4 0 -5 1 -15 11l-10 6c-7 7 -66 44 -75 44l-49 17c-6 8 -51 14 -66 14
l-21 6h-22c-12 0 -20 2 -22 3c-58 -14 -59 -14 -79 -28h-4c-9 -7 -15 -10 -25 -11l-62 -41c-1 -3 -1 -4 -40 -37l-48 -57c-6 -6 -45 -65 -45 -67c-6 -9 -30 -61 -30 -68l-8 -12c-2 -14 -3 -14 -9 -24c-3 -5 -3 -6 -5 -26c-7 -13 -8 -15 -13 -41l-4 -8l-2 -4
c-4 -33 -5 -45 -5 -47c-5 -3 -8 -14 -10 -29l-3 -115v-48c4 -25 6 -31 12 -34l2 -15l8 -22l2 -2l9 -28c0 -3 1 -4 4 -4l19 -42l3 -1l15 -18c3 -6 8 -14 19 -31l2 1c22 -27 23 -27 27 -27l11 -10l41 -29l18 -10c0 -3 4 -4 20 -7c7 -8 7 -9 24 -11c8 -1 15 -3 15 -7l37 -8h4
l9 -7l17 1l54 -8l-2 -1l2 -2h15l3 2l-2 1h26zM295 36c1 0 1 0 1 1zM407 80c-12 -2 -20 -3 -24 -3l-43 7l-69 26c-11 0 -59 35 -83 59l-16 14l-48 62l-6 12c-9 11 -24 33 -24 40l-8 14c0 18 -7 36 -19 61l-2 1v18c0 4 23 19 27 19h33c11 8 13 10 31 11l22 1c5 5 39 14 54 14
c7 8 9 9 22 11l34 2c1 3 1 3 2 3c4 4 8 7 13 7h37c1 9 2 10 50 13l12 10l44 3c0 7 2 7 22 11c27 0 40 8 43 11l18 1c24 2 24 3 26 6c4 5 5 6 47 8c10 9 11 9 50 13l13 5c0 2 3 5 4 5l24 2c17 0 18 3 20 6c7 4 8 4 49 9c20 10 20 10 30 10c13 0 13 0 35 11c34 2 39 3 43 8
c2 2 6 3 12 3c7 0 11 -2 18 -9l5 -10l4 -48c-3 -58 -3 -68 -3 -82c-7 -23 -10 -34 -11 -44l-39 -89l-21 -35c-8 -7 -14 -14 -14 -16c-5 -9 -12 -16 -18 -20c-1 0 -2 -1 -2 -2c-13 -15 -23 -27 -84 -70l-10 -5c-5 -6 -5 -7 -6 -7l-31 -15h-3c-39 -23 -76 -34 -173 -58l-34 -3
c-19 -4 -22 -5 -27 -5c-4 1 -18 3 -26 4zM329 120c0 -14 19 -23 59 -26c51 0 52 0 102 9c1 1 2 2 3 2c25 0 95 20 144 42l89 56c9 9 38 35 51 42c3 2 5 5 5 10c0 13 -8 15 -58 26h-3c-32 0 -39 -4 -57 -27c-12 -17 -44 -39 -50 -39c-1 0 -1 -1 -1 -2
c-95 -26 -98 -27 -137 -31c-6 0 -23 3 -59 8c-35 0 -88 -46 -88 -70zM115 300l2 -5c24 -39 37 -57 60 -57c11 0 15 4 55 44c21 17 31 18 127 31c6 0 200 30 271 59h2c0 5 87 35 134 35c23 0 49 -13 69 -34c3 -2 6 -3 9 -3c10 0 35 29 40 66c0 3 1 5 3 7c6 24 6 24 6 74v44
c0 5 -4 13 -8 13c-13 0 -26 -3 -218 -45l-2 -2c-5 -3 -90 -20 -103 -20c-4 -4 -133 -35 -163 -38c-12 -6 -12 -6 -14 -6l-37 -3c0 -6 -9 -9 -57 -16h-2c-4 -5 -21 -9 -34 -9c-8 0 -16 -2 -23 -7c-3 -3 -6 -4 -44 -8c-21 -8 -26 -10 -56 -11l-27 -11c-14 0 -16 0 -18 -14
c0 -31 20 -76 28 -84zM117 504c35 35 202 103 251 103c3 -1 3 -1 5 -2v-6c-3 -1 -140 -59 -141 -60l-111 -38zM250 838c19 17 20 17 31 17c6 0 32 -8 53 -20c-1 -6 -3 -7 -66 -49c-68 -55 -108 -104 -119 -139c-2 -6 -6 -9 -11 -9s-8 1 -9 3c0 69 39 134 121 197zM514 670
c0 12 16 18 82 22l102 -1c33 3 33 3 42 3c5 -2 14 -3 16 -3c39 0 61 -4 61 -12c0 -5 -1 -6 -14 -7c-2 0 -10 1 -24 4l-28 -4h-25c-3 -1 -20 -3 -26 -3l-134 -4l-30 -4h-9zM540 888c49 0 165 -45 193 -76c20 -21 37 -39 41 -43l7 -22l-6 -2l-17 8c-50 50 -156 68 -215 75
c-12 0 -37 6 -37 9c10 29 22 51 34 51z" />
    <glyph glyph-name="at" unicode="@" horiz-adv-x="1128" 
d="M1098 641c0 -121 -96 -255 -276 -431c-18 -18 -122 -102 -130 -106l-131 -89h-11c-289 188 -466 394 -520 609v64c9 86 55 228 250 228c76 0 131 -19 185 -63c113 75 187 113 309 113c201 0 324 -122 324 -325zM560 38c264 151 519 430 519 625c0 165 -128 283 -307 283
c-100 0 -198 -37 -304 -116h-6c-64 48 -109 66 -182 66c-143 0 -231 -90 -231 -238c0 -96 57 -210 159 -324l127 -129c40 -40 212 -169 222 -169c1 0 2 1 3 2zM356 838c-4 -4 -5 -5 -6 -7l-18 -3h-8c-5 5 -76 12 -123 12l-7 5v2l6 11c6 6 23 9 50 13c84 0 106 -7 106 -33z
M638 836l-33 -2c-19 0 -28 5 -28 16c0 35 90 72 192 72c117 0 186 -20 186 -58c0 -12 -11 -19 -25 -19c-13 0 -16 1 -51 10c-20 8 -53 13 -78 13c-49 0 -131 -21 -163 -32zM587 263c12 0 14 -2 21 -26c6 -20 14 -26 36 -26c41 2 42 9 47 165c0 49 -4 203 -5 223
c0 78 -59 135 -139 135c-106 0 -160 -35 -160 -103c0 -23 8 -35 22 -35c15 0 18 1 55 17c35 15 44 17 62 17c58 0 77 -28 81 -96c0 -12 -2 -17 -11 -26c-148 3 -213 -37 -213 -148c0 -76 40 -121 107 -121c20 0 37 4 52 12c14 7 29 11 45 12zM456 372c0 35 29 55 97 64
c21 0 47 -26 47 -46c0 -44 -29 -67 -88 -68c-34 0 -55 17 -56 50z" />
    <glyph glyph-name="yen" unicode="&#xa5;" horiz-adv-x="1555" 
d="M261 166l-4 2c-117 117 -182 185 -182 334c0 285 320 508 728 508c400 0 722 -224 722 -504c0 -282 -322 -506 -727 -506c-126 0 -314 41 -342 60c-21 0 -144 -57 -426 -189c167 136 196 170 231 275v20zM216 0l7 -6c49 22 203 89 231 92c126 -42 197 -53 349 -57
c306 0 692 150 692 463c0 243 -185 410 -525 478c-48 8 -60 9 -179 10c-381 0 -685 -195 -685 -472c0 -138 45 -218 185 -333c0 -35 -25 -101 -75 -175zM850 414c-75 0 -76 0 -85 -60c-4 -29 -12 -40 -31 -40c-25 0 -30 5 -30 31l116 359l7 11c5 0 11 -9 13 -15l86 -370
c0 -16 -10 -22 -43 -22c-5 1 -7 3 -8 8l-21 93zM475 337c0 98 21 363 25 367c0 1 0 2 1 2c9 0 78 -172 78 -175c16 -7 22 0 80 173l6 10h5c8 -90 10 -187 10 -389l-5 -5h-35v191h-4l-41 -77c-4 -4 -4 -4 -5 -4c-8 0 -9 1 -9 4c-39 83 -41 88 -47 90l-7 -10v-169
c0 -6 -1 -29 -20 -31h-24c-6 1 -7 1 -8 23zM311 700l11 9h45c-6 -202 -7 -241 -7 -315c21 -4 29 -5 81 -9c2 -3 10 -36 10 -54c0 -9 -1 -11 -6 -11h-134v380zM945 520c0 117 51 195 131 195c85 0 134 -78 134 -212c0 -96 -47 -174 -108 -183h-31c-79 0 -118 62 -126 200z
M1234 357c0 27 10 38 34 38c19 0 27 -10 27 -35s-11 -41 -30 -41c-24 0 -31 20 -31 38zM1010 455c13 -55 28 -75 61 -75c51 0 68 30 75 126c0 96 -26 144 -78 144c-31 0 -50 -26 -58 -80v-115zM1240 673l6 36h29c2 0 9 -7 9 -9v-275h-44v248zM822 561c-8 0 -20 -45 -24 -93
h16c23 5 24 5 26 7c0 30 -10 86 -18 86z" />
    <glyph glyph-name="numbersign" unicode="#" horiz-adv-x="1093" 
d="M436 304h-2c-72 -52 -124 -72 -185 -72c-131 0 -218 78 -218 196c0 121 91 211 213 211c58 0 99 -17 195 -81l5 -1c0 21 -14 31 -81 58c-88 44 -139 114 -139 187c0 111 81 189 210 201c113 0 186 -70 186 -171c0 -30 -9 -68 -42 -200v-25c21 0 32 36 66 153
c22 54 69 84 158 94c160 0 251 -76 261 -218c0 -89 -90 -156 -193 -156c-22 0 -51 5 -78 12c-26 8 -56 12 -90 14c-18 -2 -29 -5 -36 -9c11 -5 16 -7 126 -25c97 -21 133 -64 133 -148c0 -140 -68 -215 -202 -220c-113 0 -180 50 -199 142c-5 26 -5 35 -5 85
c-30 -12 -55 -159 -55 -327c0 -8 -2 -11 -10 -11c-59 0 -75 15 -75 70c0 76 16 145 57 241zM403 89c0 -23 1 -38 6 -60v-2c8 -8 10 -9 31 -13c3 0 5 1 6 2c0 3 -1 49 -4 90c0 42 6 94 16 118l27 80c23 94 31 111 54 111v-121c0 -114 45 -155 190 -163c105 0 172 77 178 201
c0 87 -59 120 -231 132c-37 6 -52 14 -52 31s12 25 55 30h24c135 -20 140 -21 168 -22c63 0 136 45 150 73c14 14 20 36 22 78c0 105 -87 175 -226 181c-141 0 -183 -141 -191 -199c-4 -42 -25 -65 -57 -65c-5 9 -7 20 -7 32c0 13 8 82 19 122c14 53 16 73 17 111
c0 89 -51 139 -146 143c-119 0 -203 -72 -210 -173c0 -75 65 -140 180 -197c40 -26 51 -39 51 -63c0 -10 -1 -14 -4 -14c-27 0 -37 7 -80 42c-33 25 -69 33 -140 36c-125 0 -192 -61 -198 -181c0 -119 70 -178 211 -178c54 0 104 21 145 62l23 24c30 63 39 74 67 76l-1 -5
c-86 -211 -89 -218 -93 -319zM586 466c13 -53 50 -88 56 -88l2 -3c-23 0 -48 32 -57 58h-2c0 -41 1 -53 21 -98l11 -25c-29 18 -40 42 -60 165c20 -5 28 -7 29 -9zM448 490c-7 1 -11 2 -50 5c-26 -4 -26 -4 -50 -4c33 11 41 13 92 18c34 0 54 -7 58 -20
c-41 -6 -48 -8 -61 -19l-72 -60c12 23 40 49 83 78v2zM440 724c60 -104 63 -108 79 -127c3 0 3 0 4 14l-2 49v-6c2 -6 11 -33 11 -61v-33c-12 15 -92 134 -92 164zM795 664c-11 -11 -24 -19 -38 -26c-17 -8 -26 -14 -125 -83c17 28 25 33 163 109zM749 596
c-4 -2 -77 -34 -86 -36c11 13 62 36 86 36zM438 726c-1 0 -2 0 -2 1s0 1 1 1zM436 735v-6c-2 0 -3 1 -3 3c1 2 2 3 3 3z" />
    <glyph glyph-name="plus" unicode="+" horiz-adv-x="429" 
d="M38 364c-5 23 -6 27 -8 55c0 17 3 21 8 23l110 15c5 3 15 22 15 24v154c0 15 27 27 71 32c19 0 22 -1 22 -16v-163c0 -9 15 -15 43 -16l92 1l8 -8v-62c0 -11 -16 -17 -72 -25c-57 -9 -71 -13 -71 -21v-161c0 -6 -43 -16 -54 -16c-6 0 -16 6 -16 8l-15 145
c-1 23 -11 23 -104 23c-14 0 -24 3 -29 8z" />
    <glyph glyph-name="hyphen" unicode="-" horiz-adv-x="478" 
d="M48 479c188 0 285 -1 387 -3l13 -13l-1 -75c0 -7 -3 -8 -27 -13l-368 5c-16 5 -21 25 -21 79c0 9 6 16 17 20z" />
    <glyph glyph-name="plusminus" unicode="&#xb1;" horiz-adv-x="478" 
d="M72 513c-5 23 -6 27 -8 55c0 17 3 21 8 23l110 15c5 3 15 22 15 24v154c0 15 27 27 71 32c19 0 22 -1 22 -16v-163c0 -9 15 -15 43 -16l92 1l8 -8v-62c0 -11 -16 -17 -72 -25c-57 -9 -71 -13 -71 -21v-161c0 -6 -43 -16 -54 -16c-6 0 -16 6 -16 8l-15 145
c-1 23 -11 23 -104 23c-14 0 -24 3 -29 8zM48 233c220 0 268 0 387 -3l13 -13l-1 -75c0 -7 -3 -8 -27 -13l-368 5c-16 5 -21 25 -21 79c0 9 6 16 17 20z" />
    <glyph glyph-name="brokenbar" unicode="&#xa6;" horiz-adv-x="1554" 
d="M261 166l-4 3c-117 117 -182 185 -182 333c0 285 320 508 728 508c397 0 721 -224 721 -504c0 -282 -323 -505 -726 -505c-114 0 -142 2 -347 59c-16 0 -138 -56 -421 -189c15 15 18 17 90 74c88 88 117 118 135 186c3 8 5 13 6 15v20zM215 1l8 -6c216 89 217 90 230 92
c158 -53 215 -54 350 -58c307 0 691 151 691 463c0 243 -185 410 -525 478c-47 8 -59 9 -178 10c-404 0 -679 -229 -685 -420c0 -190 26 -255 184 -384c0 -42 -29 -109 -75 -175zM428 544v-44h57c29 -10 41 -39 41 -83c0 -76 -25 -92 -95 -92l-6 -9c0 -89 -6 -102 -30 -102
v330h33zM699 336c-77 0 -87 6 -90 45c0 77 6 92 57 106c24 6 30 11 30 23c-6 70 -6 70 -6 95c1 4 2 4 20 4h14c1 0 6 -3 6 -4v-284c0 -3 -2 -5 -5 -6c-15 0 -21 5 -26 21zM1183 336c-15 -3 -33 -7 -35 -7c-27 0 -35 9 -35 42c0 40 9 49 64 57c8 1 12 4 12 11
c0 26 -17 31 -28 31c-9 0 -17 -2 -25 -7c-8 -4 -17 -6 -26 -6c0 42 16 49 79 49c20 -13 30 -22 30 -31v-145c0 -9 -1 -10 -12 -11c-7 0 -11 3 -14 8c-2 6 -5 9 -10 9zM978 466c-2 -2 -11 -8 -16 -11v-125h-48v295l-4 5c-11 3 -14 4 -16 6v48h115c25 0 60 -41 60 -64
c0 -81 0 -82 -35 -134v-6l61 -130c0 -11 -23 -26 -40 -26c-8 0 -17 20 -51 102c-10 25 -13 29 -21 40h-5zM1239 670l6 -5c16 -33 40 -88 48 -110c15 0 19 6 31 55c2 6 35 74 47 76c5 0 33 -9 33 -25c-64 -119 -76 -141 -76 -147v-173c0 -13 -11 -17 -50 -17v176
c-31 61 -41 81 -75 130c-4 7 -7 12 -9 15c0 22 0 25 45 25zM220 391c1 0 8 0 45 -6c29 0 45 14 45 38c0 20 0 20 -79 80c-10 9 -15 21 -16 36v66c0 25 47 70 81 77c13 3 26 4 38 4c23 0 32 -2 32 -10c0 -29 0 -33 -7 -51c-8 -4 -17 -7 -28 -8c-47 -6 -61 -17 -61 -47
c0 -26 3 -28 69 -82c28 -21 30 -32 32 -63c0 -68 -41 -97 -135 -97c-6 1 -10 1 -11 2l-5 6v55zM585 341c0 -10 0 -11 -14 -12h-10c-5 1 -7 3 -7 7v164l6 6l25 1v-166zM748 402c0 94 15 104 81 104c20 -4 32 -30 40 -81c0 -13 -22 -21 -80 -25v-5c0 -23 6 -28 42 -32
c8 0 13 1 18 2c4 -2 4 -2 6 -15c0 -18 -4 -18 -36 -21c-41 0 -68 24 -71 73zM1139 378c0 -12 7 -18 20 -18c17 0 25 8 25 24c0 9 -7 17 -15 17c-17 0 -30 -10 -30 -23zM458 460c-15 0 -27 -9 -27 -21v-54c0 -8 14 -16 27 -16c22 0 32 14 32 46c0 30 -11 45 -32 45zM672 374
c9 0 22 6 22 11v65c0 3 0 3 -17 5c-12 0 -22 -6 -31 -20c0 -55 1 -61 26 -61zM812 475c-26 0 -30 -24 -30 -36h47c4 0 4 0 6 11c0 11 -12 25 -23 25zM978 636c-8 0 -9 -1 -9 -6v-112c30 0 51 25 51 62c0 23 -9 56 -42 56zM549 576c0 21 2 24 15 24c14 0 21 -7 21 -20
c0 -17 -6 -25 -18 -25c-14 0 -14 1 -18 21z" />
    <glyph glyph-name="logicalnot" unicode="&#xac;" 
 />
    <glyph glyph-name="onesuperior" unicode="&#xb9;" 
 />
    <glyph glyph-name="ordmasculine" unicode="&#xba;" horiz-adv-x="393" 
 />
    <glyph glyph-name="questiondown" unicode="&#xbf;" horiz-adv-x="508" 
d="M339 725l18 -227c0 -57 -5 -67 -117 -86c-83 -14 -118 -56 -119 -138c0 -91 42 -134 123 -136c69 0 182 45 192 51c5 4 12 6 19 6c10 -1 16 -12 16 -29l2 -41c7 -25 9 -37 9 -50c0 -31 -9 -37 -127 -68c-27 -7 -56 -10 -84 -10c-165 0 -239 75 -241 252
c0 102 37 184 100 220c131 40 131 45 132 118c0 23 0 26 -12 85c0 64 2 79 34 79c34 -3 37 -4 44 -5c5 -5 11 -16 11 -21zM367 909c0 -53 -37 -102 -79 -102s-78 47 -78 100c0 58 33 96 83 96c39 0 74 -44 74 -94z" />
    <glyph glyph-name="emdash" unicode="&#x2014;" 
 />
  </font>
</defs>
</svg>
